<?xml version="1.0" encoding="UTF-8"?>
<svg id="Layer_2" data-name="Layer 2" xmlns="http://www.w3.org/2000/svg" viewBox="0 0 585.58 81">
  <g id="Layer_3" data-name="Layer 3">
    <g>
      <path d="m59.35,80.28L1.45,9.99c-.29-.35-.45-.8-.45-1.25V2.97c0-1.1.9-1.98,1.99-1.97l14.12.16c.59,0,1.14.27,1.51.73l57.94,71.3c.29.35.44.79.44,1.24v4.6c0,1.09-.88,1.97-1.97,1.97h-14.15c-.59,0-1.15-.26-1.52-.72Z"/>
      <path d="m0,79.03v-30.41c0-1.88,2.38-2.69,3.53-1.21l16.06,20.74c.27.35.41.77.41,1.21v9.67c0,1.09-.88,1.97-1.97,1.97H1.97c-1.09,0-1.97-.88-1.97-1.97Z"/>
      <path d="m57,12.64V2.97c0-1.09.88-1.97,1.97-1.97h16.06c1.09,0,1.97.88,1.97,1.97v30.41c0,1.88-2.38,2.69-3.53,1.21l-16.06-20.74c-.27-.35-.41-.77-.41-1.21Z"/>
      <path d="m154,79.03v-29.06c0-1.09-.88-1.97-1.96-1.97l-33.06-.17c-1.09,0-1.98.88-1.98,1.97v29.22c0,1.09-.88,1.97-1.97,1.97h-16.06c-1.09,0-1.97-.88-1.97-1.97V2.97c0-1.09.88-1.97,1.97-1.97h16.06c1.09,0,1.98.89,1.97,1.98l-.15,27.03c0,1.09.88,1.98,1.97,1.98h33.2c1.09,0,1.97-.88,1.97-1.97V2.97c0-1.09.88-1.97,1.97-1.97h16.06c1.09,0,1.97.88,1.97,1.97v76.06c0,1.09-.88,1.97-1.97,1.97h-16.06c-1.09,0-1.97-.88-1.97-1.97Z"/>
      <path d="m194,79.03V2.97c0-1.09.88-1.97,1.97-1.97h16.06c1.09,0,1.97.88,1.97,1.97v61.06c0,1.08.87,1.96,1.96,1.97l36.09.29c1.08,0,1.96.89,1.96,1.97v10.76c0,1.09-.88,1.97-1.97,1.97h-56.06c-1.09,0-1.97-.88-1.97-1.97Z"/>
      <path d="m355,79.03V2.97c0-1.09.88-1.97,1.97-1.97h16.06c1.09,0,1.97.88,1.97,1.97v61.06c0,1.08.87,1.96,1.96,1.97l36.09.29c1.08,0,1.96.89,1.96,1.97v10.76c0,1.09-.88,1.97-1.97,1.97h-56.06c-1.09,0-1.97-.88-1.97-1.97Z"/>
      <path d="m496.89,79.74l-22.88-59.27c-.64-1.67-2.99-1.69-3.67-.03l-24.19,59.34c-.3.74-1.02,1.23-1.83,1.23h-15.24c-1.42,0-2.38-1.46-1.8-2.77L460.79,2.18c.32-.72,1.02-1.18,1.8-1.18h20.76c.8,0,1.51.48,1.82,1.21l31.69,76.06c.54,1.3-.41,2.73-1.82,2.73h-16.32c-.82,0-1.55-.5-1.84-1.26Z"/>
      <path d="m537,78.97v-26.93c0-.36-.1-.72-.29-1.03l-28.66-47.02c-.8-1.31.14-3,1.68-4h15.18c.69,1,1.33,1.36,1.69,1.96l18.11,30.16c.18.31.28.66.28,1.02h0c0,1.99,2.61,2.73,3.65,1.03l19.85-32.42c.36-.59,1.7-.74,1.7-.74l13.42.13c1.53.01,2.46,1.7,1.66,3l-29,47.24c-.19.31-.29.67-.29,1.03v26.62c0,1.09-.89,1.98-1.98,1.97l-15.06-.05c-1.09,0-1.96-.89-1.96-1.97Z"/>
      <path d="m270,79.02l.09-33.06c0-1.09.88-1.97,1.97-1.97h38.88c6.92,0,12.55-6.5,12.55-14.5s-5.63-14.5-12.55-14.5h-38.97c-1.09,0-1.97-.89-1.97-1.98l.03-10.12c0-1.07.87-1.95,1.94-1.97,6.38-.1,12.61-.15,18.22-.15,6.9,0,12.78.08,16.12.22,3.52.15,7.02.48,10.14.98,1.61.25,3.26.52,5,.96,1.69.43,6.81,1.75,11.69,5.63,1.61,1.28,6.52,5.19,8.66,12.03,1.12,3.59,1.03,6.64.95,9.33-.08,2.61-.19,6.18-1.92,10.29-.56,1.34-2.26,4.85-5.79,8.36-5.14,5.12-10.81,6.92-12.67,7.51-4.2,1.33-8.15,1.63-11.98,1.91-1.72.13-3.08.16-5.54.22-2.1.05-4.24.07-6.36.07h0c-2.13,0-4.29-.03-6.44-.07h-.02c-1.11-.03-2.02.86-2.02,1.97v18.83c0,1.09-.88,1.97-1.97,1.97h-16.06c-1.09,0-1.97-.89-1.97-1.98Z"/>
    </g>
  </g>
</svg>