<?xml version="1.0" encoding="UTF-8"?>
<svg id="Layer_2" data-name="Layer 2" xmlns="http://www.w3.org/2000/svg" viewBox="0 0 602 85">
  <g id="Layer_4" data-name="Layer 4">
    <g>
      <polygon points="210 0 190 0 190 85 249 85 249 67 210 67 210 0"/>
      <polygon points="471 0 437 85 458 85 481.94 25.14 508 85 529 85 492 0 471 0"/>
      <polygon points="581 0 560.84 32.26 540 0 519 0 551 48 551 85 571 85 571 48 602 0 581 0"/>
      <polygon points="385 0 365 0 365 85 424 85 424 67 385 67 385 0"/>
      <polygon points="147 31 118 31 118 0 98 0 98 85 118 85 118 51 147 51 147 85 167 85 167 0 147 0 147 31"/>
      <polygon points="0 85 20 85 20 67 0 41 0 85"/>
      <polygon points="55 17 75 42 75 0 55 0 55 17"/>
      <polygon points="0 0 0 9 55 85 75 85 75 75 20 0 0 0"/>
      <path d="m318.67,0h-27.67s-20,0-20,0v18l44.16-.09c7,0,12.54,6.23,11.4,13.44-.9,5.64-6.01,9.65-11.72,9.65h-43.84s0,44,0,44h20v-27h27.67c16.02,0,29-12.98,29-29h0C347.67,12.98,334.68,0,318.67,0Z"/>
    </g>
  </g>
</svg>