<?xml version="1.0" encoding="utf-8"?>
<!-- Generator: Adobe Illustrator 13.0.0, SVG Export Plug-In . SVG Version: 6.00 Build 14948)  -->
<!DOCTYPE svg PUBLIC "-//W3C//DTD SVG 1.1//EN" "http://www.w3.org/Graphics/SVG/1.1/DTD/svg11.dtd">
<svg version="1.1" id="Layer_1" xmlns="http://www.w3.org/2000/svg" xmlns:xlink="http://www.w3.org/1999/xlink" x="0px" y="0px"
	 width="218px" height="214.434px" viewBox="16.5 9.066 218 214.434" enable-background="new 16.5 9.066 218 214.434"
	 xml:space="preserve">
<g>
	<path fill="#FFFFFF" d="M203.492,64.236L203.492,64.236l-19.941,5.714L245,14.887l-40.598,8.252l6.334-7.681h-45.297
		c-1.672-2.199-5.265-5.626-11.666-5.626h-27.287l-2.438,5.626H84.496l2.763-6.392H32.071L21.154,34.274H34.7L22.135,63.293h10.333
		c-10.531,15.342-16.111,33.186-16.111,52.019c0,28.059,12.465,53.868,34.143,71.486L5,240.936l61.096-43.771
		c13.069,6.801,27.72,10.424,42.541,10.424c50.88,0,92.277-41.397,92.277-92.277c0-11.109-2.031-21.918-5.875-32.215l31.886-25.574
		L203.492,64.236z"/>
	<path fill="#003775" d="M171.189,76.782L183,66.199c-15.95-24.102-43.297-40.001-74.363-40.001
		c-49.216,0-89.114,39.896-89.114,89.114s39.898,89.115,89.114,89.115s89.115-39.897,89.115-89.115
		c0-15.585-4.006-30.233-11.036-42.979L171.189,76.782z"/>
	<path fill="#FFFFFF" d="M171.189,76.782l5.733-5.138c-14.405-22.481-39.604-37.38-68.287-37.38
		c-44.759,0-81.044,36.286-81.044,81.047c0,44.762,36.285,81.048,81.044,81.048c44.76,0,81.043-36.286,81.043-81.048
		c0-14.833-3.986-28.732-10.943-40.692L171.189,76.782z"/>
	<path fill="#B2B7BB" d="M171.189,76.782l2.898-2.598c-13.682-21.729-37.878-36.17-65.452-36.17
		c-42.688,0-77.294,34.607-77.294,77.297s34.605,77.298,77.294,77.298c42.689,0,77.295-34.607,77.295-77.298
		c0-14.485-3.988-28.037-10.92-39.625L171.189,76.782z"/>
	<polyline fill="#003E7E" points="117.953,136.311 181.387,80.207 149.398,88.539 214.5,27.842 192.602,32.475 182.559,44.648 
		175.854,60.131 164.57,60.131 122.565,102.857 149.134,94.779 98.852,146.791 119.608,141.68 23.588,223.729 147.13,129.036 
		117.953,136.311 	"/>
	<polygon fill="#FFFFFF" points="23.588,223.73 119.608,141.68 98.852,146.791 149.134,94.779 122.565,102.856 164.57,60.131 
		123.146,60.131 53.607,136.816 102.212,122.51 61.778,164.632 87.407,156.566 31.007,215.6 	"/>
	<path fill="#FFFFFF" d="M178.904,42.412l16.135-19.552h-32.248l-2.411,3.787c1.724-5.422-1.688-9.417-6.606-9.417h-22.428
		l-4.174,9.645h10.145l-12.567,29.016h28.575l2.673-4.438l-1.172,4.438h18.241L178.904,42.412 M140.127,53.054h-11.059
		l12.564-29.016h-10.142l1.719-3.971h20.563c3.531,0,5.17,2.891,3.643,6.422l-1.625,3.75c-1.813,4.176-5.736,4.636-5.736,4.636
		s4.135,0.538,1.906,5.68l-2.633,6.08C147.798,50.164,143.658,53.054,140.127,53.054z M158.512,53.054l1.314-4.988h-7.164
		l1.621,0.731l-2.564,4.257h-4.75l17.377-27.36h5.229l-6.318,27.36H158.512z M166.518,53.054l5.258-12.139l0.623-15.221h5.037
		l-0.676,9.118l7.225-9.118h5.035l-12.556,15.221l-5.257,12.139H166.518z"/>
	<path fill="#FFFFFF" d="M151.796,26.372c0.562-1.282-0.037-2.333-1.321-2.333h-5.168l1.67,0.752l-3.297,7.614h3.168
		c1.286,0,2.791-1.047,3.352-2.333L151.796,26.372"/>
	<polyline fill="#FFFFFF" points="160.877,44.087 163.813,32.975 157.12,44.087 160.877,44.087 	"/>
	<path fill="#FFFFFF" d="M145.348,37.35h-3.811l-4.645,10.726h3.812c1.282,0,2.79-1.054,3.347-2.34l2.619-6.053
		C147.227,38.4,146.633,37.35,145.348,37.35"/>
	<path fill="#FFFFFF" d="M104.165,28.997h-4.972l1.729,0.785L97.407,37.9h2.904c0.964,0,2.092-0.789,2.511-1.752l2.337-5.395
		C105.575,29.789,105.129,28.997,104.165,28.997"/>
	<polyline fill="#FFFFFF" points="60.54,44.087 63.474,32.975 56.786,44.087 60.54,44.087 	"/>
	<path fill="#FFFFFF" d="M114.6,22.86l-2.307,3.632c0,0-1.369-3.632-6.09-3.632h-32.98l2.773-6.392H36.929l-4.508,10.407H45.97
		L33.4,55.891h19.586l2.676-4.438l-1.172,4.438h38.214l4.841-11.176h1.652c0.53,0,1.074-0.05,1.618-0.148l-7.194,11.324h11.515
		l2.676-4.438l-1.172,4.438h10.686l7.631-33.03L114.6,22.86 M37.725,53.054l12.566-29.016H36.744l2.049-4.733h32.879l-2.051,4.733
		H53.963l1.669,0.752l-12.24,28.264H37.725z M58.17,53.054l1.315-4.988h-7.16l1.621,0.731l-2.564,4.257h-4.747l17.376-27.36h5.23
		l-6.324,27.36H58.17z M79.132,53.054l7.321-16.906L75.657,53.054h-3.331l3.848-16.906l-7.318,16.906h-4.689l11.847-27.36h6.657
		l-3.52,15.446l9.863-15.446h6.654l-11.851,27.36H79.132z M99.197,41.875h-3.515L90.84,53.054h-4.689l11.847-27.36h8.205
		c3.21,0,4.697,2.629,3.311,5.838l-1.951,4.508C106.17,39.25,102.403,41.875,99.197,41.875z M115.069,53.054h-4.747l1.319-4.988
		h-7.164l1.618,0.731l-2.562,4.257h-4.75l17.376-27.36h5.233L115.069,53.054z"/>
	<polyline fill="#FFFFFF" points="112.689,44.087 115.62,32.975 108.933,44.087 112.689,44.087 	"/>
	<polyline fill="#003E7E" points="37.725,53.054 43.392,53.054 55.632,24.79 53.963,24.038 69.621,24.038 71.672,19.305 
		38.793,19.305 36.744,24.038 50.291,24.038 37.725,53.054 	"/>
	<path fill="#003E7E" d="M62.917,53.054l6.324-27.36h-5.23l-17.376,27.36h4.747l2.564-4.257l-1.621-0.731h7.16l-1.315,4.988H62.917
		 M56.786,44.087l6.688-11.112L60.54,44.087H56.786z"/>
	<polyline fill="#003E7E" points="68.855,53.054 76.174,36.147 72.326,53.054 75.657,53.054 86.453,36.147 79.132,53.054 
		83.818,53.054 95.669,25.693 89.015,25.693 79.151,41.14 82.67,25.693 76.013,25.693 64.166,53.054 68.855,53.054 	"/>
	<path fill="#003E7E" d="M90.841,53.054l4.842-11.179h3.515c3.206,0,6.973-2.625,8.365-5.835l1.951-4.508
		c1.387-3.209-0.101-5.838-3.311-5.838h-8.205l-11.847,27.36H90.841 M100.923,29.782l-1.729-0.785h4.972
		c0.964,0,1.41,0.792,0.994,1.755l-2.337,5.395c-0.419,0.964-1.547,1.752-2.511,1.752h-2.904L100.923,29.782z"/>
	<path fill="#003E7E" d="M103.534,53.054l2.562-4.257l-1.618-0.731h7.164l-1.319,4.988h4.747l6.324-27.36h-5.233l-17.376,27.36
		H103.534 M115.62,32.975l-2.931,11.112h-3.757L115.62,32.975z"/>
	<path fill="#003E7E" d="M140.127,53.054c3.531,0,7.671-2.89,9.201-6.418l2.633-6.08c2.229-5.143-1.906-5.68-1.906-5.68
		s3.924-0.46,5.736-4.636l1.625-3.75c1.527-3.531-0.111-6.422-3.643-6.422H133.21l-1.719,3.971h10.142l-12.564,29.016
		L140.127,53.054 M145.307,24.038h5.168c1.284,0,1.883,1.051,1.321,2.333l-1.598,3.7c-0.562,1.286-2.064,2.333-3.351,2.333h-3.17
		l3.297-7.614L145.307,24.038z M145.348,37.35c1.285,0,1.879,1.051,1.322,2.333l-2.619,6.053c-0.557,1.286-2.064,2.34-3.347,2.34
		h-3.812l4.645-10.726H145.348z"/>
	<path fill="#003E7E" d="M151.719,53.054l2.564-4.257l-1.621-0.731h7.164l-1.315,4.988h4.746l6.318-27.36h-5.229l-17.377,27.36
		H151.719 M163.813,32.975l-2.936,11.112h-3.757L163.813,32.975z"/>
	<polyline fill="#003E7E" points="171.207,53.054 176.464,40.915 189.02,25.693 183.984,25.693 176.76,34.812 177.436,25.693 
		172.398,25.693 171.773,40.915 166.518,53.054 171.207,53.054 	"/>
	<path fill="#231F20" d="M234.213,20.305l-37.936,7.711l7.756-9.396h-40.275c0,0-2.68-5.626-9.984-5.626h-25.209l-2.437,5.626
		h-13.854l-0.786,1.235c-1.423-0.742-3.176-1.235-5.284-1.235H79.682l2.767-6.392H34.146l-8.182,18.884h13.553L26.948,60.131h90.323
		l-75.998,86.393l47.423-14.35l-40.903,41.958l21.455-5.241L31.007,215.6l56.4-59.031l-25.629,8.063l40.434-42.121l-48.604,14.309
		l69.539-76.688h52.707l6.705-15.483l10.043-12.173l21.898-4.632l-65.102,60.696l31.986-8.332l-63.433,56.104l29.177-7.273
		L23.588,223.729L172.382,117.13l-36.604,9.45l76.906-61.69l-41.494,11.892L234.213,20.305 M117.325,55.891H106.64l1.172-4.438
		l-2.676,4.438H93.621l7.194-11.324c-0.544,0.098-1.088,0.148-1.618,0.148h-1.652l-4.841,11.176H54.49l1.172-4.438l-2.676,4.438
		H33.4l12.57-29.016H32.421l4.508-10.407h39.067l-2.773,6.392h32.98c4.721,0,6.09,3.632,6.09,3.632l2.307-3.632h10.356
		L117.325,55.891z M178.904,42.412l-5.838,13.479h-18.242l1.172-4.438l-2.673,4.438h-28.575l12.568-29.016h-10.146l4.173-9.645
		h22.43c4.918,0,8.328,3.995,6.605,9.417l2.411-3.787h32.248L178.904,42.412z"/>
</g>
</svg>
