<?xml version="1.0" encoding="UTF-8"?>
<svg viewBox="0 0 96 96" version="1.1" xmlns="http://www.w3.org/2000/svg" xmlns:xlink="http://www.w3.org/1999/xlink">
    <title>atl</title>
    <g id="Page-1" stroke="none" stroke-width="1" fill="none" fill-rule="evenodd">
        <g id="atl">
            <rect id="Rectangle" x="0.113864786" y="0" width="95.8861352" height="96"></rect>
            <g id="Group" transform="translate(0.000000, 14.263883)">
                <path d="M14.4847285,15.6038029 L14.5308959,15.64963 C15.1452776,14.4826174 16.3641761,13.7110617 17.7365714,13.7110617 L47.6684414,13.712642 C50.7253552,13.712642 53.266141,14.3640989 55.2359505,15.6508152 C55.9158346,14.7366422 56.895215,14.0934815 58.0099409,13.8362963 L58.4585934,11.6911106 C58.7797923,10.1559004 59.8301995,8.8679989 61.2688865,8.24656666 L69.0159355,4.90039308 C70.6763838,4.18296082 72.5783232,4.44962755 73.97834,5.59491175 C74.572992,6.08123285 75.0287472,6.68844286 75.3302165,7.36123313 L77.9846452,6.16933163 L87.7145252,1.80192326 C89.3777357,1.05486136 91.2926967,1.301775 92.7124431,2.44666414 C94.1325842,3.59115822 94.7824792,5.41160307 94.4087995,7.19767754 L86.0469742,47.182279 C85.9431961,47.6765014 85.7612887,48.1383286 85.5209814,48.5618349 C87.6959793,50.326576 89.0873151,53.0216877 89.0873151,56.0431205 C89.0873151,61.3602575 84.7819083,65.6703819 79.4714725,65.6703819 L32.9082868,65.6703819 C27.597851,65.6703819 23.2924442,61.3602575 23.2924442,56.0431205 C23.2924442,54.2037127 23.8085721,52.4847987 24.7023258,51.02307 L11.1575184,51.02307 C9.10681731,51.02307 7.57106043,49.1413906 7.98025362,47.1297358 L8.3373605,45.3721058 C8.32039299,45.3681552 8.30539845,45.3645996 8.28843094,45.3602539 C7.86858373,45.252007 7.44557978,45.1129452 7.02415421,44.9466242 L6.63626906,46.8555629 C6.35887001,48.2201064 6.70453369,49.6209956 7.58408201,50.6995144 C8.46441952,51.7780331 9.7665772,52.3963049 11.1575184,52.3963049 L22.3615987,52.3963049 C21.9658217,53.5400088 21.7480062,54.7662807 21.7480062,56.0431205 C21.7480062,62.2045046 26.7546052,67.2170489 32.9082868,67.2170489 L79.4714725,67.2170489 C85.625154,67.2170489 90.631753,62.2045046 90.631753,56.0431205 C90.631753,52.9039593 89.3303845,50.06465 87.2410133,48.0328471 C87.2990185,47.846773 87.3503156,47.6575384 87.3905641,47.4639581 L95.7523894,7.48014674 C96.233004,5.18562771 95.3980447,2.8464667 93.5738402,1.37604662 C91.7496356,-0.0943734626 89.2893468,-0.412003163 87.1526244,0.547206927 L79.3751917,4.03876326 C79.3751917,4.03876326 79.3751917,4.03876326 79.3747971,4.03876326 L75.8767281,5.60913398 C75.5807832,5.21604747 75.23946,4.85140541 74.8468397,4.53022016 C73.0474946,3.05821983 70.6041733,2.71688642 68.4725806,3.63817058 L60.7247424,6.98434416 C58.8772569,7.78236903 57.527748,9.43649285 57.1146089,11.4094316 L56.8308963,12.767259 C56.1490392,13.035506 55.5200576,13.4234567 54.9747297,13.910963 C52.952834,12.8664195 50.5012262,12.3382219 47.6680468,12.3382219 L17.7365714,12.3382219 C15.3709849,12.3382219 13.3116028,14.0223704 12.8396693,16.3429635 L12.6183025,17.4333341 C12.6873563,17.3740749 12.7571993,17.3152107 12.8211234,17.2520008 L14.4847285,15.6038029" id="Fill-511" fill="#99D2CB"></path>
                <path d="M38.0222151,40.1375367 L44.8182944,40.1375367 L46.0249605,34.3692391 L39.2284866,34.3692391 C38.3079006,34.3692391 37.4054659,35.116301 37.2129044,36.0379802 L36.6048362,38.9456352 C36.4351611,39.755907 36.9268243,40.1375367 38.0222151,40.1375367" id="Fill-512" fill="#1A1919"></path>
                <path d="M27.0134584,43.7586733 L26.7534215,43.7586733 L26.7534215,44.0012413 L27.0134584,44.0012413 C27.0805392,44.0012413 27.1349931,43.9471178 27.1349931,43.8803524 C27.1349931,43.8124017 27.0805392,43.7586733 27.0134584,43.7586733" id="Fill-513" fill="#1A1919"></path>
                <path d="M27.3433383,44.6617846 L27.1132905,44.6617846 L26.9025777,44.2094389 L26.7534215,44.2094389 L26.7534215,44.6617846 L26.544287,44.6617846 L26.544287,43.5500807 L27.0134584,43.5500807 C27.1961551,43.5500807 27.3433383,43.6974387 27.3433383,43.8803524 C27.3433383,44.0237598 27.2521873,44.1454388 27.1239445,44.1908709 L27.3433383,44.6617846 Z M26.9436154,43.341093 C26.5217952,43.341093 26.1800775,43.6836116 26.1800775,44.1055376 C26.1800775,44.5282537 26.5217952,44.8699822 26.9436154,44.8699822 C27.3658302,44.8699822 27.7079425,44.5282537 27.7079425,44.1055376 C27.7079425,43.6836116 27.3658302,43.341093 26.9436154,43.341093 L26.9436154,43.341093 Z" id="Fill-514" fill="#1A1919"></path>
                <path d="M62.2979856,46.1922541 L68.5514992,46.1922541 L69.5671822,41.3369444 C69.7092358,40.6558578 69.2736049,40.1039565 68.5933261,40.1039565 L66.0631943,40.1039565 C65.0155492,40.1039565 64.6016209,39.5793144 64.8308796,38.4830178 L67.7350858,24.5961999 L72.3964157,24.5961999 C73.0305271,24.5961999 73.6520114,24.0818294 73.7845947,23.4469651 L74.8105372,18.5414825 L69.0013355,18.5414825 L70.9269505,9.33417184 L63.1795069,12.6807405 L61.9539003,18.5414825 L59.0994128,18.5414825 L58.0730758,23.4469651 C57.9404925,24.0818294 58.3469235,24.5961999 58.9806403,24.5961999 L60.6876506,24.5961999 L57.453959,40.0581293 C56.7452696,43.4457844 58.9143486,46.1922541 62.2979856,46.1922541" id="Fill-515" fill="#DD4A8D"></path>
                <path d="M36.6048362,38.9456352 L37.2129044,36.0379802 C37.4054659,35.116301 38.3079006,34.3692391 39.2284866,34.3692391 L46.0249605,34.3692391 L44.8182944,40.1375367 L38.0222151,40.1375367 C36.9268243,40.1375367 36.4351611,39.755907 36.6048362,38.9456352 Z M36.7559654,46.1922541 L50.5517342,46.1922541 L54.5197637,27.2182252 C55.7264299,21.4495326 53.477643,18.5414825 47.6680468,18.5414825 L35.9202169,18.5414825 L34.9065069,23.3881009 C34.7672155,24.0553603 35.1941654,24.5961999 35.8602388,24.5961999 L46.4021917,24.5961999 C47.3227777,24.5961999 47.9126946,25.3432618 47.7197385,26.264546 L47.0718164,29.3638059 L40.2757371,29.3638059 C34.5138866,29.3638059 31.0710606,31.9380287 30.0139454,36.9912644 L29.804811,37.9927461 C28.6679878,43.4272165 30.994115,46.1922541 36.7559654,46.1922541 L36.7559654,46.1922541 Z" id="Fill-516" fill="#DD4A8D"></path>
                <polyline id="Fill-517" fill="#DD4A8D" points="81.3256661 46.1922541 89.687886 6.20804769 81.9104533 9.69920896 74.2782309 46.1922541 81.3256661 46.1922541"></polyline>
                <path d="M26.9436154,44.8699822 C26.5217952,44.8699822 26.1800775,44.5282537 26.1800775,44.1055376 C26.1800775,43.6836116 26.5217952,43.341093 26.9436154,43.341093 C27.3658302,43.341093 27.7079425,43.6836116 27.7079425,44.1055376 C27.7079425,44.5282537 27.3658302,44.8699822 26.9436154,44.8699822 Z M26.9436154,43.1325003 C26.406574,43.1325003 25.9721268,43.5678585 25.9721268,44.1055376 C25.9721268,44.6436118 26.406574,45.0789699 26.9436154,45.0789699 C27.4810514,45.0789699 27.9162877,44.6436118 27.9162877,44.1055376 C27.9162877,43.5678585 27.4810514,43.1325003 26.9436154,43.1325003 L26.9436154,43.1325003 Z" id="Fill-518" fill="#FFFFFE"></path>
                <path d="M27.1314475,44.0012413 L26.8060154,44.0012413 L26.8060154,43.7586733 L27.1314475,43.7586733 C27.2153981,43.7586733 27.2835463,43.8124017 27.2835463,43.8803524 C27.2835463,43.9471178 27.2153981,44.0012413 27.1314475,44.0012413 Z M27.544287,43.8803524 C27.544287,43.6974387 27.3600895,43.5500807 27.1314475,43.5500807 L26.544287,43.5500807 L26.544287,44.6617846 L26.8060154,44.6617846 L26.8060154,44.2094389 L26.9926821,44.2094389 L27.2563858,44.6617846 L27.544287,44.6617846 L27.2697191,44.1908709 C27.430213,44.1454388 27.544287,44.0237598 27.544287,43.8803524 L27.544287,43.8803524 Z" id="Fill-519" fill="#FFFFFE"></path>
                <path d="M32.3392833,58.736652 L32.3388887,58.736652 C32.1992027,58.7421828 32.0646464,58.7453433 31.9328523,58.7453433 C31.8318364,58.7453433 31.7327935,58.743368 31.6341452,58.7402075 L31.5919237,58.7386273 L31.5919237,53.9327003 L31.6337506,53.93112 C31.8843173,53.9220336 32.1411975,53.9232188 32.3771643,53.9350706 C33.7191759,53.9350706 35.2884732,54.5533424 35.2884732,56.2963551 C35.2884732,58.4399605 33.0310053,58.7062322 32.3392833,58.736652 Z M32.0011169,52.2817369 C31.5007727,52.2817369 30.399463,52.2931937 29.8584756,52.3042555 L29.8044164,52.3054407 L29.8044164,60.35364 L29.8572919,60.3560103 C30.617673,60.3899857 31.5899508,60.3899857 31.9561333,60.3899857 C35.1760141,60.3899857 37.0980777,58.8425285 37.0980777,56.250528 C37.0980777,53.7418854 35.2403328,52.295169 32.0011169,52.2817369 L32.0011169,52.2817369 Z" id="Fill-520" fill="#99D2CB"></path>
                <path d="M32.3771643,53.9350706 C32.1411975,53.9232188 31.8843173,53.9220336 31.6337506,53.93112 L31.5919237,53.9327003 L31.5919237,58.7386273 L31.6341452,58.7402075 C31.7327935,58.743368 31.8318364,58.7453433 31.9328523,58.7453433 C32.0646464,58.7453433 32.1992027,58.7421828 32.3388887,58.736652 L32.3392833,58.736652 C33.0310053,58.7062322 35.2884732,58.4399605 35.2884732,56.2963551 C35.2884732,54.5533424 33.7191759,53.9350706 32.3771643,53.9350706" id="Fill-521" fill="#1A1919"></path>
                <polygon id="Fill-522" fill="#99D2CB" points="38.5075648 60.3560103 40.2721857 60.3560103 40.2721857 52.3042555 38.5075648 52.3042555"></polygon>
                <polyline id="Fill-523" fill="#99D2CB" points="45.4859462 58.3135408 45.4453031 58.2226765 42.8255986 52.3042555 40.8913025 52.3042555 44.5444467 60.3560103 46.462959 60.3560103 50.0245576 52.3042555 48.0902615 52.3042555 45.4859462 58.3135408"></polyline>
                <polygon id="Fill-524" fill="#99D2CB" points="50.6444636 60.3560103 52.4094791 60.3560103 52.4094791 52.3042555 50.6444636 52.3042555"></polygon>
                <path d="M54.1125435,54.6521078 C54.1374029,56.1746761 55.4068093,56.6985281 56.5104866,56.9845528 C56.7271183,57.0414417 56.9441446,57.0884541 57.1536736,57.1338862 L57.1730087,57.1378368 C58.088465,57.3349726 58.649182,57.4819356 58.6333982,57.9970962 C58.6223496,58.5098865 58.0024436,58.8622816 57.0905387,58.8729483 C56.3060873,58.8848001 55.496382,58.6505285 54.6140715,58.1539358 L54.5608014,58.1239111 L53.9045929,59.6429238 L53.947209,59.6674176 C54.3907318,59.925788 55.5899006,60.5266771 57.1343385,60.5266771 C57.1655114,60.5266771 57.1962897,60.5266771 57.2278571,60.5258869 C58.8204354,60.5049487 60.5132404,59.8025287 60.488381,57.8943802 C60.4662838,56.4445033 59.4983466,55.9008982 57.9436493,55.4939846 C57.7609526,55.445392 57.5841748,55.4023302 57.4164727,55.3616389 L57.3856944,55.3545278 C56.5724378,55.1569968 55.9848884,55.0147746 55.9679209,54.5691449 C55.9612128,54.4178362 56.0132991,54.2831201 56.1218123,54.1693423 C56.3400223,53.9413916 56.7717073,53.8102311 57.3063812,53.8102311 C57.9329952,53.8102311 58.6448414,53.9935398 59.309731,54.3265769 L59.3669471,54.3550214 L59.8897831,52.7727988 L59.8451941,52.7518605 C59.0118131,52.3646999 58.1575188,52.1679591 57.3063812,52.1679591 C56.2255903,52.1679591 55.2836962,52.4946753 54.7221901,53.0643544 C54.3094455,53.483515 54.1042571,54.0176386 54.1125435,54.6521078" id="Fill-525" fill="#99D2CB"></path>
                <polygon id="Fill-526" fill="#99D2CB" points="61.8864249 60.3560103 63.6506512 60.3560103 63.6506512 52.3042555 61.8864249 52.3042555"></polygon>
                <path d="M69.3860639,58.9748742 C67.8877934,58.9748742 66.8807915,57.9346765 66.8807915,56.3868243 C66.8807915,54.8389721 67.8830583,53.7987743 69.3746207,53.7987743 C70.8665778,53.7987743 71.8688446,54.8346264 71.8688446,56.3757625 C71.8688446,57.9299357 70.8713129,58.9748742 69.3860639,58.9748742 Z M69.3746207,52.1568974 C66.874478,52.1568974 65.0593491,53.9358608 65.0593491,56.3868243 C65.0593491,58.877294 66.83857,60.6167511 69.3860639,60.6167511 C71.9205363,60.6167511 73.690287,58.8729483 73.690287,56.3757625 C73.690287,53.93112 71.8755527,52.1568974 69.3746207,52.1568974 L69.3746207,52.1568974 Z" id="Fill-527" fill="#99D2CB"></path>
                <path d="M69.3746207,53.7987743 C67.8830583,53.7987743 66.8807915,54.8389721 66.8807915,56.3868243 C66.8807915,57.9346765 67.8877934,58.9748742 69.3860639,58.9748742 C70.8713129,58.9748742 71.8688446,57.9299357 71.8688446,56.3757625 C71.8688446,54.8346264 70.8665778,53.7987743 69.3746207,53.7987743" id="Fill-528" fill="#1A1919"></path>
                <polyline id="Fill-529" fill="#99D2CB" points="80.7539005 57.4037134 76.847822 52.3042555 75.1001686 52.3042555 75.1001686 60.3560103 76.9097732 60.3560103 76.9097732 55.2213919 80.8841163 60.3560103 82.5753429 60.3560103 82.5753429 52.3042555 80.7539005 52.3042555 80.7539005 57.4037134"></polyline>
                <polyline id="Fill-530" fill="#1A1919" points="90.982941 46.1922541 90.982941 44.4587229 91.6766359 44.4587229 91.7516086 44.0814388 89.8271774 44.0814388 89.7518101 44.4587229 90.5149534 44.4587229 90.5149534 46.1922541 90.982941 46.1922541"></polyline>
                <polyline id="Fill-531" fill="#1A1919" points="94.5248099 46.191464 94.5248099 44.082624 93.9266065 44.082624 93.3433977 45.1342786 92.7601889 44.082624 92.1619856 44.082624 92.1619856 46.191464 92.5944597 46.191464 92.5944597 44.6009451 93.1725388 45.6324515 93.5142566 45.6324515 94.0923357 44.6009451 94.0923357 46.191464 94.5248099 46.191464"></polyline>
                <path d="M6.15920583,17.7541243 C6.15920583,17.7541243 8.15111249,19.8076557 10.1694569,19.8076557 C12.7729831,19.8076557 14.4847285,17.5933342 14.4847285,17.5933342 C14.4847285,17.5933342 16.1972632,19.8076557 18.8000002,19.8076557 C20.8187392,19.8076557 22.8106458,17.7541243 22.8106458,17.7541243 C23.710713,21.7963968 27.0323989,22.0863722 27.0323989,22.0863722 C27.0323989,22.0863722 25.6813116,24.4800518 25.6813116,27.3142252 C25.6813116,30.9515594 27.4179165,31.9799053 27.4179165,35.3083011 C27.4179165,38.9740797 24.9090927,42.8227719 20.3302327,43.9826734 C18.154051,44.5333895 16.6522292,44.6736365 15.5465789,45.0726489 C15.40492,45.2057848 14.4847285,46.204501 14.4847285,46.204501 C14.4847285,46.204501 13.5649317,45.2057848 13.4232727,45.0726489 C12.3176225,44.6736365 10.815406,44.5333895 8.64001351,43.9826734 C4.06036441,42.8227719 1.5519352,38.9740797 1.5519352,35.3083011 C1.5519352,31.9799053 3.28932922,30.9515594 3.28932922,27.3142252 C3.28932922,24.4800518 1.93824198,22.0863722 1.93824198,22.0863722 C1.93824198,22.0863722 5.25913866,21.7963968 6.15920583,17.7541243 Z M2.31428933,27.3225215 C2.31428933,30.8737322 0.574133159,31.5797077 0.574133159,35.3083011 C0.574133159,40.3006972 4.28607174,43.8858832 8.39615489,44.9442538 C10.4279155,45.4586243 11.3737555,45.5091922 12.8885989,45.9334886 C13.0851063,46.140501 14.4847285,47.6543779 14.4847285,47.6543779 C14.4847285,47.6543779 15.8839562,46.140501 16.0812528,45.9334886 C17.5957016,45.5091922 18.5423308,45.4586243 20.5740914,44.9442538 C24.6829907,43.8858832 28.3957185,40.3006972 28.3957185,35.3083011 C28.3957185,31.5797077 26.6555623,30.8737322 26.6555623,27.3225215 C26.6555623,25.8671138 27.0047773,24.5784221 27.4660568,23.5315083 L28.380724,21.4515079 L26.2282179,20.8158534 C25.2918481,20.5389151 24.6092018,19.8297791 24.2007978,18.7097789 L23.2506173,16.1086919 L21.1359921,17.8623713 C20.4399297,18.4387665 19.6444297,18.8160505 18.8000002,18.8160505 C17.6679122,18.8160505 16.547662,18.250717 15.847259,17.5569885 L14.4847285,16.2078524 L13.1233819,17.5569885 C12.4225843,18.250717 11.3019395,18.8160505 10.1694569,18.8160505 C9.32463278,18.8160505 8.52952741,18.4387665 7.83385953,17.8623713 L5.71844519,16.1086919 L4.76984305,18.7097789 C4.36025527,19.8297791 3.67839815,20.5389151 2.74084462,20.8158534 L0.589127702,21.4515079 L1.50458401,23.5315083 C1.96467973,24.5784221 2.31428933,25.8671138 2.31428933,27.3225215 L2.31428933,27.3225215 Z" id="Fill-532" fill="#E1E2E0"></path>
                <path d="M7.0363866,21.04973 C7.80426504,21.4791622 8.89097481,21.9129401 10.1694569,21.9129401 C12.1065151,21.9129401 13.6193856,21.0663226 14.4847285,20.429878 C15.3500715,21.0663226 16.8633366,21.9129401 18.8000002,21.9129401 C19.1089667,21.9129401 19.40649,21.886866 19.6917809,21.842224 L3.83820841,33.7636094 C4.29475279,31.9692386 5.37593826,30.4834111 5.37593826,27.3142252 C5.37593826,25.6687928 5.01922597,24.2477554 4.71302162,23.3284466 C5.42644619,22.9361502 6.32256743,22.2432117 7.0363866,21.04973 Z M24.25683,23.3284466 C23.9506257,24.2477554 23.594308,25.6687928 23.594308,27.3142252 C23.594308,27.9984723 23.6440267,28.6025218 23.7276805,29.1504725 L7.53554704,41.3246975 C5.50694321,40.2813392 3.73087905,38.2764005 3.64249017,35.5247949 L22.2515072,21.5328906 C22.9010077,22.4352118 23.6456051,22.9930391 24.25683,23.3284466 Z M25.331702,35.3083011 C25.331702,38.9037587 22.4709011,41.2666234 19.8125264,41.9429692 C17.8948033,42.4316607 15.5485519,42.6825249 14.8398624,43.0878584 C14.6800522,43.2044016 14.4847285,43.4125992 14.4847285,43.4125992 C14.4847285,43.4125992 14.2890103,43.2044016 14.1299892,43.0878584 C13.4209052,42.6825249 11.0746538,42.4316607 9.15693065,41.9429692 C9.0839309,41.9247964 9.01250953,41.9046482 8.93990437,41.884105 L24.0323065,30.5359543 C24.5460669,32.3370412 25.331702,33.5163007 25.331702,35.3083011 Z M2.52815887,35.3083011 C2.52815887,39.5453391 5.82616914,42.2428211 8.88347754,43.0206979 C11.3054908,43.6362042 12.8885989,43.70534 13.9516331,44.2193154 C13.9516331,44.2193154 14.3383344,44.5732908 14.4847285,44.7364513 C14.6319118,44.5732908 15.0186132,44.2193154 15.0186132,44.2193154 C16.0808582,43.70534 17.6647554,43.6362042 20.0859795,43.0206979 C23.1436825,42.2428211 26.4416928,39.5453391 26.4416928,35.3083011 C26.4416928,32.2769918 24.7035096,31.1637076 24.7035096,27.3142252 C24.7035096,24.7198543 25.6832846,22.7208415 25.6832846,22.7208415 C25.6832846,22.7208415 23.4230545,22.26415 22.3702798,19.4003469 C22.3702798,19.4003469 20.8704309,20.8012361 18.8000002,20.8012361 C16.207128,20.8012361 14.4847285,18.9784209 14.4847285,18.9784209 C14.4847285,18.9784209 12.7627236,20.8012361 10.1694569,20.8012361 C8.09981537,20.8012361 6.59957188,19.4003469 6.59957188,19.4003469 C5.54679713,22.26415 3.28656707,22.7208415 3.28656707,22.7208415 C3.28656707,22.7208415 4.26634208,24.7198543 4.26634208,27.3142252 C4.26634208,31.1637076 2.52815887,32.2769918 2.52815887,35.3083011 L2.52815887,35.3083011 Z" id="Fill-533" fill="#E1E2E0"></path>
                <path d="M10.5533961,31.5635101 L10.5533961,35.5366468 L8.81521291,32.8707697 L6.88407361,34.3230169 C6.88407361,34.3230169 7.56040642,34.3415848 7.56040642,35.0511158 L7.56040642,40.0703762 L8.92333146,39.046376 L8.92333146,35.4971406 L10.4756612,37.8785733 L11.9163212,36.7961039 L11.9163212,30.5395099 L10.5533961,31.5635101" id="Fill-534" fill="#E1E2E0"></path>
                <path d="M13.1411386,30.8551643 L13.1411386,35.8748197 L14.5403662,34.822375 L14.5403662,32.5337819 L16.0769122,31.3794113 L16.0769122,33.6672143 L17.4094536,32.6649425 L17.4094536,26.4079534 L16.0769122,27.4110154 L16.0769122,29.7233122 L14.5403662,30.8776828 L14.5403662,28.565386 L12.4648058,30.1258802 C12.4648058,30.1258802 13.1411386,30.1452382 13.1411386,30.8551643" id="Fill-535" fill="#E1E2E0"></path>
                <path d="M18.5731091,26.7710152 L18.5731091,31.7910657 L22.4361768,28.8853861 C22.3529177,27.8839044 22.4361768,27.2893363 22.4361768,27.2893363 L19.9719421,29.1417812 L19.9719421,24.4828172 L17.8963817,26.0429163 C17.8963817,26.0429163 18.5731091,26.0614842 18.5731091,26.7710152" id="Fill-536" fill="#E1E2E0"></path>
                <path d="M3.28656707,22.7208415 C3.28656707,22.7208415 5.54679713,22.26415 6.59957188,19.4003469 C6.59957188,19.4003469 8.09981537,20.8012361 10.1694569,20.8012361 C12.7627236,20.8012361 14.4847285,18.9784209 14.4847285,18.9784209 C14.4847285,18.9784209 16.207128,20.8012361 18.8000002,20.8012361 C20.8704309,20.8012361 22.3702798,19.4003469 22.3702798,19.4003469 C23.4230545,22.26415 25.6832846,22.7208415 25.6832846,22.7208415 C25.6832846,22.7208415 24.7035096,24.7198543 24.7035096,27.3142252 C24.7035096,31.1637076 26.4416928,32.2769918 26.4416928,35.3083011 C26.4416928,39.5453391 23.1436825,42.2428211 20.0859795,43.0206979 C17.6647554,43.6362042 16.0808582,43.70534 15.0186132,44.2193154 C15.0186132,44.2193154 14.6319118,44.5732908 14.4847285,44.7364513 C14.3383344,44.5732908 13.9516331,44.2193154 13.9516331,44.2193154 C12.8885989,43.70534 11.3054908,43.6362042 8.88347754,43.0206979 C5.82616914,42.2428211 2.52815887,39.5453391 2.52815887,35.3083011 C2.52815887,32.2769918 4.26634208,31.1637076 4.26634208,27.3142252 C4.26634208,24.7198543 3.28656707,22.7208415 3.28656707,22.7208415 Z M1.5519352,35.3083011 C1.5519352,38.9740797 4.06036441,42.8227719 8.64001351,43.9826734 C10.815406,44.5333895 12.3176225,44.6736365 13.4232727,45.0726489 C13.5649317,45.2057848 14.4847285,46.204501 14.4847285,46.204501 C14.4847285,46.204501 15.40492,45.2057848 15.5465789,45.0726489 C16.6522292,44.6736365 18.154051,44.5333895 20.3302327,43.9826734 C24.9090927,42.8227719 27.4179165,38.9740797 27.4179165,35.3083011 C27.4179165,31.9799053 25.6813116,30.9515594 25.6813116,27.3142252 C25.6813116,24.4800518 27.0323989,22.0863722 27.0323989,22.0863722 C27.0323989,22.0863722 23.710713,21.7963968 22.8106458,17.7541243 C22.8106458,17.7541243 20.8187392,19.8076557 18.8000002,19.8076557 C16.1972632,19.8076557 14.4847285,17.5933342 14.4847285,17.5933342 C14.4847285,17.5933342 12.7729831,19.8076557 10.1694569,19.8076557 C8.15111249,19.8076557 6.15920583,17.7541243 6.15920583,17.7541243 C5.25913866,21.7963968 1.93824198,22.0863722 1.93824198,22.0863722 C1.93824198,22.0863722 3.28932922,24.4800518 3.28932922,27.3142252 C3.28932922,30.9515594 1.5519352,31.9799053 1.5519352,35.3083011 L1.5519352,35.3083011 Z" id="Fill-537" fill="#1A1919"></path>
                <path d="M2.74084462,20.8158534 C3.67839815,20.5389151 4.36025527,19.8297791 4.76984305,18.7097789 L5.71844519,16.1086919 L7.83385953,17.8623713 C8.52952741,18.4387665 9.32463278,18.8160505 10.1694569,18.8160505 C11.3019395,18.8160505 12.4225843,18.250717 13.1233819,17.5569885 L14.4847285,16.2078524 L15.847259,17.5569885 C16.547662,18.250717 17.6679122,18.8160505 18.8000002,18.8160505 C19.6444297,18.8160505 20.4399297,18.4387665 21.1359921,17.8623713 L23.2506173,16.1086919 L24.2007978,18.7097789 C24.6092018,19.8297791 25.2918481,20.5389151 26.2282179,20.8158534 L28.380724,21.4515079 L27.4660568,23.5315083 C27.0047773,24.5784221 26.6555623,25.8671138 26.6555623,27.3225215 C26.6555623,30.8737322 28.3957185,31.5797077 28.3957185,35.3083011 C28.3957185,40.3006972 24.6829907,43.8858832 20.5740914,44.9442538 C18.5423308,45.4586243 17.5957016,45.5091922 16.0812528,45.9334886 C15.8839562,46.140501 14.4847285,47.6543779 14.4847285,47.6543779 C14.4847285,47.6543779 13.0851063,46.140501 12.8885989,45.9334886 C11.3737555,45.5091922 10.4279155,45.4586243 8.39615489,44.9442538 C4.28607174,43.8858832 0.574133159,40.3006972 0.574133159,35.3083011 C0.574133159,31.5797077 2.31428933,30.8737322 2.31428933,27.3225215 C2.31428933,25.8671138 1.96467973,24.5784221 1.50458401,23.5315083 L0.589127702,21.4515079 L2.74084462,20.8158534 Z M29.804811,37.9927461 L30.0139454,36.9912644 C31.0710606,31.9380287 34.5138866,29.3638059 40.2757371,29.3638059 L47.0718164,29.3638059 L47.7197385,26.264546 C47.9126946,25.3432618 47.3227777,24.5961999 46.4021917,24.5961999 L35.8602388,24.5961999 C35.1941654,24.5961999 34.7672155,24.0553603 34.9065069,23.3881009 L35.9202169,18.5414825 L47.6680468,18.5414825 C53.477643,18.5414825 55.7264299,21.4495326 54.5197637,27.2182252 L50.5517342,46.1922541 L36.7559654,46.1922541 C30.994115,46.1922541 28.6679878,43.4272165 29.804811,37.9927461 Z M57.3063812,52.1679591 C58.1575188,52.1679591 59.0118131,52.3646999 59.8451941,52.7518605 L59.8897831,52.7727988 L59.3669471,54.3550214 L59.309731,54.3265769 C58.6448414,53.9935398 57.9329952,53.8102311 57.3063812,53.8102311 C56.7717073,53.8102311 56.3400223,53.9413916 56.1218123,54.1693423 C56.0132991,54.2831201 55.9612128,54.4178362 55.9679209,54.5691449 C55.9848884,55.0147746 56.5724378,55.1569968 57.3856944,55.3545278 L57.4164727,55.3616389 C57.5841748,55.4023302 57.7609526,55.445392 57.9436493,55.4939846 C59.4983466,55.9008982 60.4662838,56.4445033 60.488381,57.8943802 C60.5132404,59.8025287 58.8204354,60.5049487 57.2278571,60.5258869 C57.1962897,60.5266771 57.1655114,60.5266771 57.1343385,60.5266771 C55.5899006,60.5266771 54.3907318,59.925788 53.947209,59.6674176 L53.9045929,59.6429238 L54.5608014,58.1239111 L54.6140715,58.1539358 C55.496382,58.6505285 56.3060873,58.8848001 57.0905387,58.8729483 C58.0024436,58.8622816 58.6223496,58.5098865 58.6333982,57.9970962 C58.649182,57.4819356 58.088465,57.3349726 57.1730087,57.1378368 L57.1536736,57.1338862 C56.9441446,57.0884541 56.7271183,57.0414417 56.5104866,56.9845528 C55.4068093,56.6985281 54.1374029,56.1746761 54.1125435,54.6521078 C54.1042571,54.0176386 54.3094455,53.483515 54.7221901,53.0643544 C55.2836962,52.4946753 56.2255903,52.1679591 57.3063812,52.1679591 Z M57.453959,40.0581293 L60.6876506,24.5961999 L58.9806403,24.5961999 C58.3469235,24.5961999 57.9404925,24.0818294 58.0730758,23.4469651 L59.0994128,18.5414825 L61.9539003,18.5414825 L63.1795069,12.6807405 L70.9269505,9.33417184 L69.0013355,18.5414825 L74.8105372,18.5414825 L73.7845947,23.4469651 C73.6520114,24.0818294 73.0305271,24.5961999 72.3964157,24.5961999 L67.7350858,24.5961999 L64.8308796,38.4830178 C64.6016209,39.5793144 65.0155492,40.1039565 66.0631943,40.1039565 L68.5933261,40.1039565 C69.2736049,40.1039565 69.7092358,40.6558578 69.5671822,41.3369444 L68.5514992,46.1922541 L62.2979856,46.1922541 C58.9143486,46.1922541 56.7452696,43.4457844 57.453959,40.0581293 Z M81.9104533,9.69920896 L89.687886,6.20804769 L81.3256661,46.1922541 L74.2782309,46.1922541 L81.9104533,9.69920896 Z M82.5753429,60.3560103 L80.8841163,60.3560103 L76.9097732,55.2213919 L76.9097732,60.3560103 L75.1001686,60.3560103 L75.1001686,52.3042555 L76.847822,52.3042555 L80.7539005,57.4037134 L80.7539005,52.3042555 L82.5753429,52.3042555 L82.5753429,60.3560103 Z M69.3860639,60.6167511 C66.83857,60.6167511 65.0593491,58.877294 65.0593491,56.3868243 C65.0593491,53.9358608 66.874478,52.1568974 69.3746207,52.1568974 C71.8755527,52.1568974 73.690287,53.93112 73.690287,56.3757625 C73.690287,58.8729483 71.9205363,60.6167511 69.3860639,60.6167511 Z M61.8864249,60.3560103 L63.6506512,60.3560103 L63.6506512,52.3042555 L61.8864249,52.3042555 L61.8864249,60.3560103 Z M50.6444636,60.3560103 L52.4094791,60.3560103 L52.4094791,52.3042555 L50.6444636,52.3042555 L50.6444636,60.3560103 Z M46.462959,60.3560103 L44.5444467,60.3560103 L40.8913025,52.3042555 L42.8255986,52.3042555 L45.4453031,58.2226765 L45.4859462,58.3135408 L48.0902615,52.3042555 L50.0245576,52.3042555 L46.462959,60.3560103 Z M38.5075648,60.3560103 L40.2721857,60.3560103 L40.2721857,52.3042555 L38.5075648,52.3042555 L38.5075648,60.3560103 Z M31.9561333,60.3899857 C31.5899508,60.3899857 30.617673,60.3899857 29.8572919,60.3560103 L29.8044164,60.35364 L29.8044164,52.3054407 L29.8584756,52.3042555 C30.399463,52.2931937 31.5007727,52.2817369 32.0011169,52.2817369 C35.2403328,52.295169 37.0980777,53.7418854 37.0980777,56.250528 C37.0980777,58.8425285 35.1760141,60.3899857 31.9561333,60.3899857 Z M26.9436154,45.0789699 C26.406574,45.0789699 25.9721268,44.6436118 25.9721268,44.1055376 C25.9721268,43.5678585 26.406574,43.1325003 26.9436154,43.1325003 C27.4810514,43.1325003 27.9162877,43.5678585 27.9162877,44.1055376 C27.9162877,44.6436118 27.4810514,45.0789699 26.9436154,45.0789699 Z M1.88536649,27.3225215 C1.88536649,30.7378309 0.145210311,31.5149175 0.145210311,35.3083011 C0.145210311,40.1884997 3.51148521,43.5611424 7.02415421,44.9466242 C7.44557978,45.1129452 7.86858373,45.252007 8.28843094,45.3602539 C8.30539845,45.3645996 8.32039299,45.3681552 8.3373605,45.3721058 L7.98025362,47.1297358 C7.57106043,49.1413906 9.10681731,51.02307 11.1575184,51.02307 L24.7023258,51.02307 C23.8085721,52.4847987 23.2924442,54.2037127 23.2924442,56.0431205 C23.2924442,61.3602575 27.597851,65.6703819 32.9082868,65.6703819 L79.4714725,65.6703819 C84.7819083,65.6703819 89.0873151,61.3602575 89.0873151,56.0431205 C89.0873151,53.0216877 87.6959793,50.326576 85.5209814,48.5618349 C85.7612887,48.1383286 85.9431961,47.6765014 86.0469742,47.182279 L94.4087995,7.19767754 C94.7824792,5.41160307 94.1325842,3.59115822 92.7124431,2.44666414 C91.2926967,1.301775 89.3777357,1.05486136 87.7145252,1.80192326 L77.9846452,6.16933163 L75.3302165,7.36123313 C75.0287472,6.68844286 74.572992,6.08123285 73.97834,5.59491175 C72.5783232,4.44962755 70.6763838,4.18296082 69.0159355,4.90039308 L61.2688865,8.24656666 C59.8301995,8.8679989 58.7797923,10.1559004 58.4585934,11.6911106 L58.0099409,13.8362963 C56.895215,14.0934815 55.9158346,14.7366422 55.2359505,15.6508152 C53.266141,14.3640989 50.7253552,13.712642 47.6684414,13.712642 L17.7365714,13.7110617 C16.3641761,13.7110617 15.1452776,14.4826174 14.5308959,15.64963 L14.4847285,15.6038029 L12.8211234,17.2520008 C12.7571993,17.3152107 12.6873563,17.3740749 12.6183025,17.4333341 C11.9321049,18.0172355 11.0004703,18.3870134 10.1694569,18.3870134 C9.48562682,18.3870134 8.79193191,18.0986182 8.10770724,17.5309144 L5.52430531,15.3904695 L4.36656876,18.5624208 C4.00709432,19.5481 3.4191504,20.1683471 2.62009909,20.4045941 L0,21.17773 L1.11156915,23.7049405 C1.62493495,24.871163 1.88536649,26.0875583 1.88536649,27.3225215 L1.88536649,27.3225215 Z" id="Fill-538" fill="#1A1919"></path>
                <path d="M11.9163212,36.7961039 L10.4756612,37.8785733 L8.92333146,35.4971406 L8.92333146,39.046376 L7.56040642,40.0703762 L7.56040642,35.0511158 C7.56040642,34.3415848 6.88407361,34.3230169 6.88407361,34.3230169 L8.81521291,32.8707697 L10.5533961,35.5366468 L10.5533961,31.5635101 L11.9163212,30.5395099 L11.9163212,36.7961039 Z M14.5403662,28.565386 L14.5403662,30.8776828 L16.0769122,29.7233122 L16.0769122,27.4110154 L17.4094536,26.4079534 L17.4094536,32.6649425 L16.0769122,33.6672143 L16.0769122,31.3794113 L14.5403662,32.5337819 L14.5403662,34.822375 L13.1411386,35.8748197 L13.1411386,30.8551643 C13.1411386,30.1452382 12.4648058,30.1258802 12.4648058,30.1258802 L14.5403662,28.565386 Z M19.9719421,24.4828172 L19.9719421,29.1417812 L22.4361768,27.2893363 C22.4361768,27.2893363 22.3529177,27.8839044 22.4361768,28.8853861 L18.5731091,31.7910657 L18.5731091,26.7710152 C18.5731091,26.0614842 17.8963817,26.0429163 17.8963817,26.0429163 L19.9719421,24.4828172 Z M3.64249017,35.5247949 C3.73087905,38.2764005 5.50694321,40.2813392 7.53554704,41.3246975 L23.7276805,29.1504725 C23.6440267,28.6025218 23.594308,27.9984723 23.594308,27.3142252 C23.594308,25.6687928 23.9506257,24.2477554 24.25683,23.3284466 C23.6456051,22.9930391 22.9010077,22.4352118 22.2515072,21.5328906 L3.64249017,35.5247949 L3.64249017,35.5247949 Z" id="Fill-539" fill="#1A1919"></path>
                <path d="M3.83820841,33.7636094 L19.6917809,21.842224 C19.40649,21.886866 19.1089667,21.9129401 18.8000002,21.9129401 C16.8633366,21.9129401 15.3500715,21.0663226 14.4847285,20.429878 C13.6193856,21.0663226 12.1065151,21.9129401 10.1694569,21.9129401 C8.89097481,21.9129401 7.80426504,21.4791622 7.0363866,21.04973 C6.32256743,22.2432117 5.42644619,22.9361502 4.71302162,23.3284466 C5.01922597,24.2477554 5.37593826,25.6687928 5.37593826,27.3142252 C5.37593826,30.4834111 4.29475279,31.9692386 3.83820841,33.7636094" id="Fill-540" fill="#1A1919"></path>
                <path d="M8.93990437,41.884105 C9.01250953,41.9046482 9.0839309,41.9247964 9.15693065,41.9429692 C11.0746538,42.4316607 13.4209052,42.6825249 14.1299892,43.0878584 C14.2890103,43.2044016 14.4847285,43.4125992 14.4847285,43.4125992 C14.4847285,43.4125992 14.6800522,43.2044016 14.8398624,43.0878584 C15.5485519,42.6825249 17.8948033,42.4316607 19.8125264,41.9429692 C22.4709011,41.2666234 25.331702,38.9037587 25.331702,35.3083011 C25.331702,33.5163007 24.5460669,32.3370412 24.0323065,30.5359543 L8.93990437,41.884105" id="Fill-541" fill="#1A1919"></path>
            </g>
        </g>
    </g>
</svg>