<svg viewBox="0 0 96 96" xmlns="http://www.w3.org/2000/svg">
    <g fill="none" fill-rule="evenodd">
        <path d="M0 0h96v96H0z"/>
        <path d="m87.96 47.755.624-2.98c2.804-.19 5.2-2.253 5.787-5.045l.835-3.99a5.166 5.166 0 0 0-1.051-4.334 5.179 5.179 0 0 0-2.423-1.663l.312-1.49a5.17 5.17 0 0 0-1.796-5.081A5.196 5.196 0 0 0 86.97 22c-.71 0-1.403.143-2.058.426l-6.309 2.721a5.195 5.195 0 0 0-3.022 3.7l-.216 1.03c-.39.16-.758.368-1.098.617-1.554-.667-3.387-1.004-5.464-1.004h-4.216c-3.521 0-6.567.966-8.894 2.808-1.952-1.866-4.7-2.809-8.188-2.809l-33.049.002a4.227 4.227 0 0 0-4.128 3.373l-.211 1.036c.114-.085.224-.174.323-.272l1.354-1.34.046.045a2.954 2.954 0 0 1 2.616-1.584h33.049c3.582 0 6.269 1.071 7.984 3.184.036.044.072.089.107.135 2.183-2.174 5.273-3.318 8.991-3.318h4.216c2.237 0 4.142.417 5.669 1.24a3.93 3.93 0 0 1 1.977-1.14l.365-1.745a3.933 3.933 0 0 1 2.288-2.8l6.308-2.722a3.915 3.915 0 0 1 4.04.565 3.914 3.914 0 0 1 1.36 3.846l-.577 2.757a3.911 3.911 0 0 1 2.944 1.45 3.912 3.912 0 0 1 .796 3.28l-.836 3.99c-.493 2.352-2.585 4.058-4.974 4.058h-.605l-1.043 4.977a4.696 4.696 0 0 1 2.241 1.517c.901 1.11 1.246 2.567.947 3.998l-.827 3.949a3.945 3.945 0 0 1-3.844 3.122H79.94c-.366 0-.727-.026-1.083-.07a7.83 7.83 0 0 1-6.636 11.984H34.307a7.83 7.83 0 0 1-6.702-11.879H9.093a2.643 2.643 0 0 1-2.59-3.17L6.8 56.5a8.844 8.844 0 0 1-1.203-.397l-.326 1.603a3.886 3.886 0 0 0 .802 3.246 3.886 3.886 0 0 0 3.02 1.433H25.66a9.052 9.052 0 0 0-.44 2.791c0 5.01 4.076 9.088 9.087 9.088h37.914c5.01 0 9.088-4.077 9.088-9.088 0-.986-.16-1.934-.452-2.824h4.175a5.21 5.21 0 0 0 5.077-4.124l.827-3.949c.378-1.804-.06-3.645-1.202-5.05a5.921 5.921 0 0 0-1.774-1.474" fill="#99D2CB"/>
        <path d="M67.582 44.029c.08-.048.157-.102.229-.161.288-.239.505-.568.581-.932l.495-2.365c.138-.66-.223-.97-1.115-.97h-4.215c-.892 0-1.383.31-1.522.97l-.77 3.683h5.533c.273 0 .544-.083.784-.225M20.672 56.838h-.188l-.171-.368h-.122v.368h-.17v-.904h.382a.268.268 0 0 1 .09.52l.179.384Zm-.326-1.074a.622.622 0 1 0 0 1.243.622.622 0 0 0 0-1.243Z" fill="#1A1919"/>
        <path d="M20.403 56.103h-.212v.198h.212a.099.099 0 1 0 0-.198" fill="#1A1919"/>
        <path d="M62.035 40.57c.139-.659.63-.969 1.522-.969h4.215c.892 0 1.253.31 1.115.97l-.495 2.365a1.678 1.678 0 0 1-.581.932c-.072.06-.149.113-.229.16a1.55 1.55 0 0 1-.784.226h-5.534l.771-3.683Zm-2.117 16.595h9.527l.823-3.929c.115-.55-.238-.995-.787-.995h-8.532c-.75 0-1.23-.608-1.073-1.357l.536-2.56h5.534c4.691 0 7.494-2.093 8.347-6.164l.17-.814c.926-4.42-.968-6.669-5.66-6.669h-4.216c-4.73 0-7.527 2.249-8.452 6.669L54.3 50.108a14.337 14.337 0 0 0-.151.853c-.59 4.125 1.298 6.204 5.77 6.204ZM79.94 57.165h5.092l.827-3.949c.087-.415-.091-.772-.419-.924a.933.933 0 0 0-.374-.079h-2.06c-.213 0-.394-.026-.543-.08a.841.841 0 0 1-.199-.102c-.174-.122-.276-.306-.304-.554a1.484 1.484 0 0 1-.003-.269c.007-.097.022-.201.045-.313l2.365-11.294h3.796c.258 0 .514-.104.718-.273.153-.127.278-.29.354-.473.025-.06.045-.124.058-.188l.835-3.99h-4.73l1.568-7.488-6.308 2.722-.998 4.766h-2.324l-.836 3.99c-.108.516.223.934.74.934h1.389l-2.633 12.575c-.577 2.755 1.189 4.989 3.944 4.989M28.429 57.165l3.677-17.564h3.636c.75 0 1.23.608 1.073 1.357l-3.393 16.207h5.738l3.678-17.564h3.636c.75 0 1.23.608 1.073 1.357l-3.393 16.207h5.738l3.23-15.432c.983-4.69-.848-7.056-5.617-7.056H27.399L22.69 57.165h5.739" fill="#DD4A8D"/>
        <path d="M33.843 67.367a9.124 9.124 0 0 1-.573.002h-.035v-3.91h.034c.205-.008.414-.007.605.003 1.093 0 2.37.502 2.37 1.92 0 1.743-1.837 1.96-2.4 1.985Zm-.275-5.25c-.414 0-1.31.01-1.744.018l-.045.001v6.545l.043.002c.62.028 1.411.028 1.71.028 2.621 0 4.187-1.258 4.187-3.366 0-2.04-1.513-3.217-4.15-3.228Z" fill="#99D2CB"/>
        <path d="M33.874 63.462c-.19-.01-.4-.01-.605-.004l-.034.001v3.91h.035a7.383 7.383 0 0 0 .573-.002c.564-.025 2.402-.242 2.402-1.985 0-1.418-1.278-1.92-2.37-1.92" fill="#1A1919"/>
        <path fill="#99D2CB" d="M38.866 68.684h1.437v-6.549h-1.437zM44.548 67.023l-2.166-4.888h-1.575l2.975 6.549h1.562l2.9-6.549h-1.575l-2.12 4.888M48.749 68.684h1.437v-6.549h-1.437zM54.692 64.73c-.158-.043-.31-.08-.454-.114-.663-.16-1.14-.276-1.154-.639a.43.43 0 0 1 .125-.325c.178-.186.53-.292.964-.292.51 0 1.09.15 1.632.42l.046.023.426-1.287-.037-.017a4.896 4.896 0 0 0-2.067-.475c-.88 0-1.647.266-2.104.73-.336.34-.503.775-.496 1.29.02 1.239 1.054 1.665 1.952 1.898.182.048.364.087.54.124.745.16 1.201.28 1.189.699-.01.417-.514.704-1.256.712h-.012c-.65 0-1.306-.191-2.005-.585l-.043-.024-.534 1.236.034.02c.361.21 1.337.699 2.596.699h.074c1.298-.018 2.677-.59 2.656-2.141-.018-1.18-.806-1.622-2.072-1.952M57.903 68.684h1.436v-6.549h-1.436zM64.01 67.56c-1.22 0-2.04-.846-2.04-2.105s.815-2.104 2.03-2.104c1.215 0 2.031.842 2.031 2.096 0 1.264-.812 2.113-2.021 2.113ZM64 62.015c-2.036 0-3.513 1.447-3.513 3.44 0 2.026 1.448 3.44 3.523 3.44 2.063 0 3.504-1.417 3.504-3.448 0-1.989-1.478-3.432-3.514-3.432Z"/>
        <path d="M64 63.35c-1.215 0-2.03.846-2.03 2.105 0 1.26.82 2.105 2.04 2.105 1.209 0 2.021-.85 2.021-2.113 0-1.254-.816-2.096-2.03-2.096" fill="#1A1919"/>
        <path fill="#99D2CB" d="m73.266 66.283-3.18-4.148h-1.424v6.549h1.474v-4.176l3.236 4.176h1.377v-6.549h-1.483v4.148"/>
        <path fill="#1A1919" d="M92.114 55.755h.621v1.41h.38v-1.41h.566l.061-.307h-1.567l-.061.307M95.038 56.304l-.475-.855h-.487v1.715h.352v-1.293l.47.839h.28l.47-.84v1.294H96v-1.715h-.487l-.475.855"/>
        <path d="M1.263 48.313c0-2.707 1.415-3.543 1.415-6.502 0-2.305-1.1-4.252-1.1-4.252s2.704-.235 3.437-3.523c0 0 1.622 1.67 3.265 1.67 2.12 0 3.514-1.8 3.514-1.8s1.395 1.8 3.514 1.8c1.643 0 3.265-1.67 3.265-1.67.733 3.288 3.438 3.523 3.438 3.523s-1.1 1.947-1.1 4.252c0 2.959 1.414 3.795 1.414 6.502 0 2.981-2.043 6.111-5.771 7.054-1.772.448-2.995.562-3.895.887-.115.108-.865.92-.865.92s-.749-.812-.864-.92c-.9-.325-2.124-.439-3.895-.887-3.729-.943-5.772-4.073-5.772-7.054Zm9.232 8.641c.16.168 1.3 1.4 1.3 1.4s1.139-1.232 1.299-1.4c1.233-.345 2.004-.386 3.659-.805 3.345-.86 6.368-3.776 6.368-7.836 0-3.033-1.417-3.607-1.417-6.495 0-1.184.285-2.232.66-3.083l.745-1.692-1.753-.517c-.762-.225-1.318-.802-1.65-1.713l-.774-2.115-1.722 1.426c-.567.47-1.215.776-1.902.776-.922 0-1.834-.46-2.404-1.024l-1.11-1.097-1.108 1.097c-.571.564-1.483 1.024-2.406 1.024-.688 0-1.335-.307-1.901-.776l-1.723-1.426-.772 2.115c-.334.911-.889 1.488-1.652 1.713l-1.752.517.745 1.692c.374.851.66 1.9.66 3.083 0 2.888-1.418 3.462-1.418 6.495 0 4.06 3.023 6.976 6.37 7.836 1.654.419 2.424.46 3.658.805Z" fill="#E1E2E0"/>
        <path d="M6.136 53.206c-1.652-.849-3.098-2.48-3.17-4.717l15.152-11.38a4.952 4.952 0 0 0 1.633 1.46c-.25.749-.54 1.904-.54 3.242 0 .557.04 1.048.11 1.494l-13.185 9.9ZM4.377 41.81c0-1.338-.29-2.493-.54-3.241a5.034 5.034 0 0 0 1.892-1.853c.625.349 1.51.701 2.551.701 1.578 0 2.81-.688 3.514-1.205.704.517 1.937 1.205 3.514 1.205.251 0 .494-.02.726-.057L3.125 47.056c.372-1.46 1.252-2.667 1.252-5.245Zm16.25 6.502c0 2.924-2.33 4.845-4.495 5.396-1.561.397-3.472.6-4.049.93-.13.096-.289.265-.289.265s-.159-.17-.289-.264c-.577-.33-2.487-.534-4.05-.931l-.176-.048 12.29-9.23c.418 1.465 1.057 2.424 1.057 3.882ZM7.232 54.585c1.972.5 3.262.557 4.127.975 0 0 .315.288.434.42.12-.132.435-.42.435-.42.865-.418 2.154-.475 4.126-.975 2.49-.633 5.175-2.827 5.175-6.272 0-2.465-1.415-3.371-1.415-6.502 0-2.11.797-3.736.797-3.736s-1.84-.37-2.697-2.7c0 0-1.221 1.14-2.907 1.14-2.112 0-3.514-1.483-3.514-1.483s-1.402 1.482-3.514 1.482c-1.685 0-2.906-1.14-2.906-1.14-.857 2.33-2.698 2.701-2.698 2.701s.797 1.626.797 3.736c0 3.13-1.414 4.037-1.414 6.502 0 3.445 2.685 5.64 5.174 6.272Z" fill="#E1E2E0"/>
        <path d="m8.53 50.403 1.173-.88v-5.089l-1.11.833v3.231L7.178 46.33l-1.573 1.181s.551.015.551.593v4.081l1.11-.832v-2.887l1.264 1.937M10.7 44.691v4.082l1.14-.856v-1.86l1.25-.94v1.861l1.085-.815v-5.089l-1.085.816v1.88l-1.25.94v-1.881l-1.69 1.269s.55.015.55.593M15.123 41.37v4.082l3.146-2.363c-.068-.815 0-1.298 0-1.298l-2.007 1.507v-3.79l-1.69 1.27s.551.014.551.591" fill="#E1E2E0"/>
        <path d="M2.059 48.313c0-2.465 1.414-3.371 1.414-6.502 0-2.11-.797-3.736-.797-3.736s1.84-.37 2.698-2.7c0 0 1.221 1.14 2.906 1.14 2.112 0 3.514-1.483 3.514-1.483s1.402 1.482 3.514 1.482c1.686 0 2.907-1.14 2.907-1.14.857 2.33 2.697 2.701 2.697 2.701s-.797 1.626-.797 3.736c0 3.13 1.415 4.037 1.415 6.502 0 3.445-2.685 5.64-5.175 6.272-1.972.5-3.261.557-4.126.975 0 0-.315.288-.435.42-.119-.132-.434-.42-.434-.42-.865-.418-2.155-.475-4.127-.975-2.489-.633-5.174-2.827-5.174-6.272Zm4.976 7.054c1.771.448 2.995.562 3.895.887.115.108.864.92.864.92s.75-.812.865-.92c.9-.325 2.123-.439 3.895-.887 3.728-.943 5.771-4.073 5.771-7.054 0-2.707-1.414-3.543-1.414-6.502 0-2.305 1.1-4.252 1.1-4.252s-2.705-.235-3.438-3.523c0 0-1.622 1.67-3.265 1.67-2.12 0-3.514-1.8-3.514-1.8s-1.394 1.8-3.514 1.8c-1.643 0-3.265-1.67-3.265-1.67-.733 3.288-3.437 3.523-3.437 3.523s1.1 1.947 1.1 4.252c0 2.959-1.415 3.795-1.415 6.502 0 2.981 2.043 6.111 5.772 7.054Z" fill="#1A1919"/>
        <path d="M.467 48.313c0-3.033 1.417-3.607 1.417-6.495a7.66 7.66 0 0 0-.66-3.083L.48 37.043l1.752-.517c.763-.225 1.318-.802 1.652-1.713l.772-2.115 1.723 1.426c.566.47 1.213.776 1.901.776.923 0 1.835-.46 2.406-1.024l1.108-1.097 1.11 1.097c.57.564 1.482 1.024 2.404 1.024.687 0 1.335-.307 1.902-.776l1.722-1.426.773 2.115c.333.911.889 1.488 1.651 1.713l1.753.517-.745 1.692c-.375.851-.66 1.9-.66 3.083 0 2.888 1.417 3.462 1.417 6.495 0 4.06-3.023 6.976-6.368 7.836-1.655.419-2.426.46-3.659.805-.16.168-1.3 1.4-1.3 1.4s-1.14-1.232-1.3-1.4c-1.233-.345-2.003-.386-3.657-.805-3.347-.86-6.37-3.776-6.37-7.836ZM27.4 34.677h20.106c4.769 0 6.6 2.365 5.618 7.056l-3.231 15.432h-5.738l3.393-16.207c.157-.75-.324-1.357-1.073-1.357h-3.636L39.16 57.165h-5.738l3.393-16.207c.157-.75-.323-1.357-1.073-1.357h-3.636L28.43 57.165H22.69L27.4 34.677Zm26.75 16.284a12.974 12.974 0 0 1 .151-.853l1.835-8.762c.925-4.42 3.723-6.669 8.452-6.669h4.216c4.692 0 6.586 2.249 5.66 6.669l-.17.814c-.853 4.071-3.656 6.165-8.347 6.165h-5.534l-.536 2.559c-.157.75.324 1.357 1.073 1.357h8.532c.55 0 .902.445.787.995l-.823 3.929h-9.527c-4.47 0-6.36-2.079-5.77-6.204Zm20.6 17.723h-1.377l-3.236-4.176v4.176h-1.474v-6.549h1.423l3.18 4.148v-4.148h1.484v6.549Zm1.247-16.508 2.633-12.575h-1.39c-.516 0-.847-.418-.739-.934l.836-3.99h2.324l.998-4.766 6.308-2.722-1.568 7.488h4.73l-.835 3.99a1.073 1.073 0 0 1-.058.188c-.076.182-.2.346-.354.473-.204.169-.46.273-.718.273h-3.796l-2.365 11.294a2.394 2.394 0 0 0-.045.313c-.007.097-.006.187.003.27.028.247.13.431.304.553.058.041.125.075.199.102.149.054.33.08.543.08h2.06a.933.933 0 0 1 .374.08c.328.151.506.508.419.923l-.827 3.949H79.94c-2.755 0-4.521-2.234-3.944-4.989ZM64.01 68.896c-2.075 0-3.523-1.415-3.523-3.44 0-1.994 1.477-3.441 3.513-3.441 2.036 0 3.514 1.443 3.514 3.432 0 2.03-1.44 3.449-3.504 3.449Zm-6.107-.212h1.436v-6.549h-1.436v6.549Zm-3.795.138h-.074a5.327 5.327 0 0 1-2.596-.698l-.034-.02.534-1.236.043.024c.699.394 1.355.585 2.005.585h.012c.742-.008 1.247-.295 1.256-.712.012-.419-.444-.538-1.19-.699-.175-.037-.357-.076-.539-.124-.898-.233-1.932-.66-1.952-1.897-.007-.516.16-.95.496-1.291.457-.464 1.224-.73 2.104-.73.693 0 1.388.16 2.067.475l.037.017-.426 1.287-.046-.023c-.542-.27-1.121-.42-1.632-.42-.435 0-.786.106-.964.292a.43.43 0 0 0-.125.325c.013.363.491.478 1.154.639.144.035.296.071.454.114 1.266.33 2.054.772 2.072 1.952.02 1.551-1.358 2.123-2.656 2.14Zm-5.36-.138h1.438v-6.549h-1.437v6.549Zm-3.404 0h-1.562l-2.975-6.549h1.575l2.166 4.888 2.121-4.888h1.575l-2.9 6.549Zm-6.478 0h1.437v-6.549h-1.437v6.549Zm-5.335.027c-.298 0-1.09 0-1.709-.028l-.043-.002v-6.545h.045c.433-.01 1.33-.019 1.744-.019 2.638.01 4.15 1.187 4.15 3.228 0 2.108-1.565 3.366-4.187 3.366ZM20.346 57.177a.79.79 0 1 1-.001-1.581.79.79 0 0 1 .001 1.58ZM6.8 56.5l-.296 1.457a2.643 2.643 0 0 0 2.59 3.17h18.51a7.83 7.83 0 0 0 6.703 11.879h37.914a7.83 7.83 0 0 0 6.636-11.984c.356.044.717.07 1.083.07h5.092a3.945 3.945 0 0 0 3.844-3.122l.827-3.95c.3-1.43-.046-2.887-.947-3.997a4.696 4.696 0 0 0-2.24-1.517l1.042-4.977h.605c2.39 0 4.481-1.706 4.974-4.057l.836-3.99a3.912 3.912 0 0 0-.796-3.281 3.911 3.911 0 0 0-2.944-1.45l.577-2.757a3.914 3.914 0 0 0-1.36-3.846 3.915 3.915 0 0 0-4.04-.565l-6.308 2.721a3.933 3.933 0 0 0-2.288 2.801l-.365 1.746a3.93 3.93 0 0 0-1.977 1.14c-1.527-.824-3.432-1.241-5.669-1.241h-4.216c-3.718 0-6.808 1.144-8.991 3.318a6.83 6.83 0 0 0-.107-.135c-1.715-2.113-4.402-3.183-7.984-3.183l-33.049-.001c-1.12 0-2.116.63-2.616 1.584l-.046-.046-1.354 1.34a3.069 3.069 0 0 1-.323.273c-.54.401-1.221.65-1.837.65-.556 0-1.121-.234-1.679-.695l-2.103-1.741-.943 2.58c-.292.801-.771 1.306-1.422 1.498L0 36.82l.905 2.056c.418.949.63 1.938.63 2.942 0 2.777-1.417 3.41-1.417 6.495 0 3.912 2.663 6.634 5.48 7.79A8.844 8.844 0 0 0 6.8 56.5Z" fill="#1A1919"/>
        <path d="m7.266 51.353-1.11.832v-4.081c0-.578-.55-.593-.55-.593l1.572-1.18 1.415 2.167v-3.23l1.11-.834v5.089l-1.173.88-1.264-1.937v2.887Zm4.574-8.524v1.88l1.25-.939v-1.88l1.085-.816v5.09l-1.085.814v-1.86l-1.25.938v1.861l-1.14.856v-4.082c0-.578-.55-.593-.55-.593l1.69-1.27Zm4.422-3.32v3.789l2.007-1.507s-.068.483 0 1.298l-3.146 2.363v-4.083c0-.577-.551-.592-.551-.592l1.69-1.269Zm3.058 3.796a9.803 9.803 0 0 1-.109-1.494c0-1.338.29-2.493.54-3.241a4.952 4.952 0 0 1-1.633-1.46L2.966 48.488c.072 2.238 1.518 3.868 3.17 4.717l13.184-9.901ZM16.034 37.361a4.726 4.726 0 0 1-.726.057c-1.577 0-2.81-.688-3.514-1.205-.705.517-1.936 1.205-3.514 1.205-1.04 0-1.926-.352-2.55-.701a5.034 5.034 0 0 1-1.893 1.853c.25.748.54 1.903.54 3.241 0 2.578-.88 3.786-1.252 5.245l12.91-9.695M7.28 53.66c.058.017.117.034.176.049 1.562.397 3.472.6 4.05.93.129.096.288.265.288.265s.16-.17.29-.264c.576-.33 2.487-.534 4.048-.931 2.165-.55 4.494-2.472 4.494-5.396 0-1.458-.64-2.417-1.058-3.882L7.28 53.661" fill="#1A1919"/>
        <path d="M20.346 57.007a.621.621 0 1 1-.001-1.242.621.621 0 0 1 .001 1.242Zm0-1.413a.791.791 0 1 0 0 1.582.791.791 0 0 0 0-1.582Z" fill="#FFFFFE"/>
        <path d="M20.608 56.34h-.325v-.219h.325c.084 0 .153.049.153.11 0 .06-.069.108-.153.108Zm.413-.11c0-.164-.184-.296-.413-.296h-.587v1h.262v-.407h.187l.263.407h.288l-.274-.424c.16-.04.274-.15.274-.28Z" fill="#FFFFFE"/>
    </g>
</svg>
