<svg viewBox="0 0 96 96" xmlns="http://www.w3.org/2000/svg">
    <g fill="none" fill-rule="evenodd">
        <path d="M0 0h96v96H0z"/>
        <path d="M12.266 27.023a3.118 3.118 0 0 1 2.844-1.843h31.38c1.201 0 2.328.511 3.117 1.409 1.879-.935 4.086-1.409 6.57-1.409h4.455c2.59 0 4.752.528 6.439 1.571a4.147 4.147 0 0 1 3.248-1.57h11.872c3.785 0 6.625 1.13 8.438 3.363 1.829 2.251 2.354 5.311 1.562 9.095l-3.415 16.309a4.169 4.169 0 0 1-4.063 3.3H81.85a8.265 8.265 0 0 1-7.052 12.576H34.774a8.265 8.265 0 0 1-7.053-12.576H9.45a2.79 2.79 0 0 1-2.734-3.346l.313-1.541a9.3 9.3 0 0 1-1.126-.383l-.344 1.688a3.956 3.956 0 0 0 .816 3.304 3.956 3.956 0 0 0 3.075 1.458h16.26a9.548 9.548 0 0 0-.528 3.13c0 5.29 4.303 9.594 9.593 9.594h40.023c5.29 0 9.593-4.304 9.593-9.593a9.548 9.548 0 0 0-.528-3.131h.851a5.355 5.355 0 0 0 5.218-4.238l3.415-16.31c.868-4.148.262-7.54-1.801-10.08-2.049-2.522-5.196-3.8-9.354-3.8H70.319a5.293 5.293 0 0 0-3.468 1.283C65.124 24.43 63.037 24 60.632 24h-4.455c-2.341 0-4.469.398-6.337 1.184A5.33 5.33 0 0 0 46.49 24H15.11a4.314 4.314 0 0 0-4.214 3.442l-.225 1.107c.123-.09.242-.187.35-.293l1.245-1.233" fill="#DD4A8D"/>
        <path d="M22.787 51.012h-.223v.209h.223a.104.104 0 1 0 0-.209" fill="#1A1919"/>
        <path d="M23.07 51.788h-.197l-.181-.388h-.128v.388h-.18v-.955h.403a.283.283 0 0 1 .095.55l.189.405Zm-.343-1.134a.657.657 0 1 0 0 1.313.657.657 0 0 0 0-1.313ZM60.198 38.06l.523-2.5c.146-.697-.236-1.025-1.178-1.025h-4.456c-.942 0-1.461.328-1.607 1.024l-.815 3.893h5.848c.77 0 1.524-.623 1.685-1.393" fill="#1A1919"/>
        <path d="M53.48 35.56c.146-.697.665-1.025 1.607-1.025h4.456c.942 0 1.324.328 1.178 1.024l-.523 2.5c-.161.77-.915 1.393-1.685 1.393h-5.848l.815-3.893Zm-2.238 17.537h10.069l.87-4.152c.12-.581-.252-1.052-.832-1.052h-9.017c-.792 0-1.3-.642-1.134-1.434l.566-2.704h5.848c4.959 0 7.921-2.213 8.822-6.516l.18-.86c.978-4.671-1.023-7.048-5.982-7.048h-4.455c-4.999 0-7.955 2.377-8.933 7.048l-1.94 9.26c-1.037 4.959.898 7.458 5.938 7.458ZM31.445 53.097h10.07l.868-4.152c.122-.58-.25-1.052-.831-1.052h-9.017c-.792 0-1.3-.642-1.134-1.434l2.282-10.9c.146-.696.665-1.024 1.607-1.024h9.377c.405 0 .803-.328.887-.733l.937-4.471H36.38c-5 0-7.956 2.377-8.934 7.048l-1.94 9.26c-1.037 4.959.898 7.458 5.938 7.458M71.407 53.097l3.887-18.562h5.807c.792 0 1.3.642 1.134 1.434L78.65 53.097h6.064l3.415-16.309c1.038-4.957-.897-7.457-5.937-7.457H70.319l-4.976 23.766h6.064" fill="#99D2CB"/>
        <path d="M34.284 63.872a9.01 9.01 0 0 1-.605.003l-.037-.002v-4.126l.036-.001c.216-.008.436-.007.64.003 1.152 0 2.502.53 2.502 2.027 0 1.84-1.94 2.07-2.536 2.096Zm-.29-5.542c-.427 0-1.374.01-1.842.019h-.046v6.91l.045.003c.653.029 1.49.029 1.804.029 2.768 0 4.42-1.329 4.42-3.554 0-2.154-1.597-3.396-4.381-3.407Z" fill="#DD4A8D"/>
        <path d="M34.317 59.75a7.544 7.544 0 0 0-.639-.004h-.036v4.127l.037.002a7.786 7.786 0 0 0 .605-.003c.595-.027 2.536-.255 2.536-2.096 0-1.496-1.35-2.027-2.503-2.027" fill="#1A1919"/>
        <path fill="#DD4A8D" d="M39.586 65.262h1.517v-6.913h-1.517zM45.585 63.508l-2.287-5.16h-1.662l3.14 6.914h1.648l3.062-6.913h-1.663l-2.238 5.16M50.019 65.262h1.517v-6.913h-1.517zM56.293 61.087c-.167-.044-.328-.083-.48-.12-.7-.169-1.204-.29-1.218-.673a.452.452 0 0 1 .132-.344c.187-.195.558-.308 1.018-.308.539 0 1.15.157 1.722.443l.05.025.448-1.359-.038-.018a5.16 5.16 0 0 0-2.182-.5c-.929 0-1.739.28-2.221.769-.355.36-.532.818-.524 1.363.02 1.307 1.113 1.756 2.061 2.002.19.05.38.091.564.13.792.171 1.274.297 1.261.74-.01.44-.543.742-1.327.751-.674.01-1.37-.191-2.128-.617l-.046-.026-.564 1.305.036.02a5.626 5.626 0 0 0 2.74.738h.08c1.37-.019 2.824-.621 2.803-2.26-.02-1.245-.85-1.711-2.187-2.06M59.682 65.262h1.517v-6.913h-1.517zM66.128 64.076c-1.288 0-2.153-.893-2.153-2.222s.861-2.222 2.143-2.222c1.283 0 2.145.89 2.145 2.212 0 1.335-.858 2.232-2.135 2.232Zm-.01-5.853c-2.149 0-3.709 1.527-3.709 3.63 0 2.14 1.53 3.633 3.72 3.633 2.178 0 3.7-1.498 3.7-3.642 0-2.098-1.561-3.621-3.71-3.621Z"/>
        <path d="M66.118 59.632c-1.282 0-2.143.893-2.143 2.222s.865 2.222 2.153 2.222c1.277 0 2.135-.897 2.135-2.232 0-1.323-.862-2.212-2.145-2.212" fill="#1A1919"/>
        <path fill="#DD4A8D" d="m75.9 62.727-3.358-4.378H71.04v6.913h1.556v-4.408l3.415 4.408h1.454v-6.913H75.9v4.378"/>
        <path fill="#1A1919" d="M92.956 53.102v-1.489h.596l.064-.324h-1.654l-.065.324h.656v1.489h.403M94.985 52.194l-.502-.904h-.514v1.81h.372v-1.364l.497.885h.293l.497-.885V53.1H96v-1.81h-.514l-.501.903"/>
        <path d="M1.334 43.758c0-2.858 1.493-3.74 1.493-6.864 0-2.433-1.161-4.488-1.161-4.488s2.855-.248 3.628-3.72c0 0 1.712 1.764 3.447 1.764 2.238 0 3.71-1.9 3.71-1.9s1.471 1.9 3.709 1.9c1.734 0 3.447-1.763 3.447-1.763.773 3.47 3.629 3.72 3.629 3.72s-1.162 2.054-1.162 4.487c0 3.123 1.493 4.006 1.493 6.864 0 3.147-2.157 6.45-6.092 7.447-1.87.473-3.162.593-4.112.936-.122.114-.913.971-.913.971s-.79-.857-.912-.971c-.95-.343-2.242-.463-4.111-.936-3.937-.996-6.093-4.3-6.093-7.447Zm5.883 8.272c1.746.442 2.56.485 3.861.85.17.177 1.372 1.477 1.372 1.477s1.203-1.3 1.373-1.477c1.3-.365 2.115-.408 3.862-.85 3.531-.908 6.722-3.986 6.722-8.272 0-3.201-1.496-3.808-1.496-6.856 0-1.25.3-2.356.697-3.255l.786-1.786-1.85-.545c-.805-.238-1.391-.847-1.742-1.809l-.817-2.232-1.818 1.505c-.598.495-1.282.819-2.007.819-.974 0-1.937-.486-2.538-1.081L12.45 27.36l-1.17 1.158c-.602.595-1.565 1.08-2.539 1.08-.726 0-1.41-.323-2.007-.818l-1.819-1.505-.815 2.232c-.352.962-.938 1.57-1.744 1.809l-1.85.545.787 1.786c.396.899.696 2.005.696 3.255 0 3.048-1.495 3.655-1.495 6.856 0 4.286 3.19 7.364 6.723 8.272Z" fill="#E1E2E0"/>
        <path d="M3.13 43.944 19.127 31.93a5.227 5.227 0 0 0 1.724 1.542c-.264.79-.57 2.009-.57 3.421 0 .588.043 1.107.115 1.577L6.477 48.923c-1.744-.896-3.27-2.617-3.346-4.98Zm1.49-7.05c0-1.412-.306-2.632-.569-3.421.613-.337 1.383-.932 1.997-1.957.66.37 1.594.741 2.693.741 1.665 0 2.965-.726 3.71-1.273.743.547 2.044 1.273 3.709 1.273.265 0 .52-.022.766-.06L3.299 42.43c.393-1.54 1.322-2.816 1.322-5.537Zm17.153 6.864c0 3.086-2.458 5.115-4.743 5.696-1.649.42-3.665.634-4.274.982-.138.1-.306.28-.306.28s-.168-.18-.305-.28c-.609-.348-2.626-.563-4.274-.982a6.07 6.07 0 0 1-.187-.05l12.973-9.743c.441 1.546 1.116 2.558 1.116 4.097Zm-14.137 6.62c2.082.53 3.442.589 4.356 1.03 0 0 .333.304.458.444.127-.14.46-.444.46-.444.912-.441 2.274-.5 4.355-1.03 2.628-.667 5.463-2.983 5.463-6.62 0-2.603-1.494-3.558-1.494-6.864 0-2.227.842-3.943.842-3.943s-1.943-.392-2.848-2.85c0 0-1.29 1.202-3.068 1.202-2.23 0-3.71-1.565-3.71-1.565s-1.48 1.565-3.709 1.565c-1.78 0-3.068-1.203-3.068-1.203-.905 2.46-2.848 2.85-2.848 2.85s.842 1.717.842 3.944c0 3.306-1.494 4.261-1.494 6.864 0 3.637 2.835 5.953 5.463 6.62Z" fill="#E1E2E0"/>
        <path d="m6.499 47.846 1.17-.88V43.92l1.335 2.044 1.238-.93v-5.37l-1.17.879v3.41l-1.495-2.288-1.66 1.247s.582.016.582.625v4.309M11.295 39.935v4.309l1.203-.904v-1.964l1.32-.991v1.964l1.146-.86v-5.372l-1.145.86v1.986l-1.32.991V37.97l-1.785 1.34s.581.016.581.626M15.964 36.428v4.31l3.32-2.495c-.07-.86 0-1.37 0-1.37l-2.117 1.59v-4l-1.784 1.34s.581.016.581.625" fill="#E1E2E0"/>
        <path d="M2.173 43.758c0-2.603 1.494-3.558 1.494-6.864 0-2.227-.842-3.943-.842-3.943s1.943-.392 2.848-2.85c0 0 1.289 1.202 3.068 1.202 2.23 0 3.71-1.565 3.71-1.565s1.48 1.565 3.709 1.565c1.779 0 3.068-1.203 3.068-1.203.905 2.46 2.848 2.85 2.848 2.85s-.842 1.717-.842 3.944c0 3.306 1.494 4.261 1.494 6.864 0 3.637-2.835 5.953-5.463 6.62-2.081.53-3.443.589-4.356 1.03 0 0-.332.304-.459.444-.125-.14-.458-.444-.458-.444-.914-.441-2.274-.5-4.356-1.03-2.628-.667-5.463-2.983-5.463-6.62Zm5.254 7.447c1.87.473 3.16.593 4.11.936.123.114.913.971.913.971s.791-.857.913-.971c.95-.343 2.241-.463 4.112-.936 3.935-.996 6.092-4.3 6.092-7.447 0-2.858-1.493-3.74-1.493-6.864 0-2.433 1.162-4.488 1.162-4.488s-2.856-.248-3.63-3.72c0 0-1.712 1.764-3.446 1.764-2.238 0-3.71-1.9-3.71-1.9s-1.471 1.9-3.709 1.9c-1.735 0-3.447-1.763-3.447-1.763-.773 3.47-3.628 3.72-3.628 3.72s1.161 2.054 1.161 4.487c0 3.123-1.493 4.006-1.493 6.864 0 3.147 2.156 6.45 6.093 7.447Z" fill="#1A1919"/>
        <path d="M.494 43.758c0-3.201 1.495-3.808 1.495-6.856 0-1.25-.3-2.356-.696-3.255l-.787-1.786 1.85-.545c.806-.238 1.392-.847 1.744-1.809l.815-2.232 1.819 1.505c.597.495 1.281.819 2.007.819.974 0 1.937-.486 2.539-1.081l1.17-1.158 1.172 1.158c.601.595 1.564 1.08 2.538 1.08.725 0 1.41-.323 2.007-.818l1.818-1.505.817 2.232c.35.962.937 1.57 1.742 1.809l1.85.545-.786 1.786a8.068 8.068 0 0 0-.697 3.255c0 3.048 1.496 3.655 1.496 6.856 0 4.286-3.19 7.364-6.722 8.272-1.747.442-2.561.485-3.862.85-.17.177-1.373 1.477-1.373 1.477s-1.203-1.3-1.372-1.477c-1.302-.365-2.115-.408-3.86-.85-3.534-.908-6.724-3.986-6.724-8.272Zm25.014 1.882 1.939-9.261c.978-4.671 3.935-7.048 8.933-7.048h10.11l-.936 4.47c-.084.406-.482.734-.887.734H35.29c-.942 0-1.461.328-1.607 1.025L31.4 46.459c-.166.792.342 1.434 1.134 1.434h9.017c.58 0 .953.471.831 1.052l-.869 4.152H31.445c-5.04 0-6.975-2.5-5.937-7.457Zm21.736-9.261c.978-4.671 3.934-7.048 8.933-7.048h4.455c4.959 0 6.96 2.377 5.982 7.048l-.18.86c-.9 4.303-3.863 6.516-8.822 6.516h-5.848l-.566 2.704c-.166.792.342 1.434 1.134 1.434h9.017c.58 0 .953.471.831 1.052l-.869 4.152H51.242c-5.04 0-6.975-2.5-5.937-7.457l1.939-9.261Zm23.075-7.048h11.872c5.04 0 6.975 2.5 5.937 7.457l-3.415 16.31H78.65l3.586-17.129c.166-.792-.342-1.434-1.134-1.434h-5.807l-3.887 18.562h-6.064l4.976-23.766Zm7.146 35.93h-1.454l-3.415-4.407v4.408H71.04v-6.913h1.502l3.357 4.378v-4.378h1.566v6.913Zm-11.337.225c-2.19 0-3.719-1.494-3.719-3.632 0-2.104 1.56-3.631 3.71-3.631 2.149 0 3.71 1.523 3.71 3.621 0 2.144-1.522 3.642-3.7 3.642Zm-6.446-.224h1.517v-6.913h-1.517v6.913Zm-4.005.146h-.08a5.626 5.626 0 0 1-2.74-.737l-.036-.021.564-1.305.046.026c.758.426 1.454.627 2.128.617.784-.009 1.317-.311 1.327-.752.013-.442-.469-.568-1.26-.739-.185-.039-.375-.08-.565-.13-.948-.246-2.04-.695-2.061-2.002-.008-.545.169-1.003.524-1.363.482-.49 1.292-.77 2.22-.77a5.16 5.16 0 0 1 2.183.501l.038.018-.449 1.359-.049-.025c-.571-.286-1.183-.443-1.722-.443-.46 0-.83.113-1.018.308a.452.452 0 0 0-.132.344c.014.382.519.504 1.218.674.152.036.313.075.48.12 1.336.349 2.168.815 2.187 2.06.021 1.639-1.434 2.241-2.803 2.26Zm-5.658-.146h1.517v-6.913h-1.517v6.913Zm-3.595 0h-1.649l-3.14-6.913h1.663l2.287 5.16 2.238-5.16h1.663l-3.062 6.913Zm-6.838 0h1.517v-6.913h-1.517v6.913Zm-5.631.029c-.315 0-1.15 0-1.804-.03l-.045-.001v-6.91l.046-.001c.468-.01 1.415-.02 1.842-.02 2.784.012 4.38 1.254 4.38 3.408 0 2.225-1.651 3.554-4.42 3.554ZM22.727 52.146a.835.835 0 1 1 0-1.67.835.835 0 0 1 0 1.67Zm-15.699.215-.313 1.54a2.79 2.79 0 0 0 2.734 3.347H27.72a8.265 8.265 0 0 0 7.052 12.576h40.024a8.265 8.265 0 0 0 7.052-12.576h2.864a4.169 4.169 0 0 0 4.063-3.3l3.415-16.309c.792-3.784.267-6.844-1.562-9.095-1.813-2.232-4.653-3.364-8.438-3.364H70.319c-1.277 0-2.47.588-3.248 1.571-1.687-1.043-3.849-1.57-6.439-1.57h-4.455c-2.484 0-4.691.473-6.57 1.408a4.132 4.132 0 0 0-3.116-1.409H15.11c-1.25 0-2.35.742-2.844 1.843l-1.246 1.233a3.177 3.177 0 0 1-.35.293c-.567.42-1.283.681-1.929.681-.588 0-1.184-.247-1.772-.735l-2.22-1.837-.996 2.723c-.309.846-.814 1.379-1.5 1.582L0 31.626l.955 2.17a7.655 7.655 0 0 1 .665 3.106c0 2.932-1.495 3.599-1.495 6.856 0 4.126 2.807 6.998 5.777 8.22a9.3 9.3 0 0 0 1.126.383Z" fill="#1A1919"/>
        <path d="m5.917 42.912 1.66-1.247 1.494 2.289v-3.411l1.171-.88v5.372l-1.238.93L7.67 43.92v3.047l-1.171.879v-4.31c0-.608-.582-.624-.582-.624Zm6.581-4.943v1.985l1.32-.991v-1.985l1.146-.861v5.371l-1.145.86v-1.963l-1.32.99v1.965l-1.204.904v-4.31c0-.61-.581-.625-.581-.625l1.784-1.34Zm4.669-3.505v4l2.118-1.59s-.072.51 0 1.37l-3.32 2.494v-4.31c0-.61-.582-.625-.582-.625l1.784-1.34Zm3.228 4.007a10.41 10.41 0 0 1-.115-1.577c0-1.412.306-2.632.57-3.421a5.227 5.227 0 0 1-1.724-1.542L3.131 43.944c.076 2.362 1.602 4.083 3.346 4.979L20.395 38.47ZM16.926 32.197c-.245.038-.501.06-.766.06-1.665 0-2.966-.726-3.71-1.273-.744.547-2.044 1.273-3.709 1.273-1.099 0-2.033-.372-2.693-.74-.614 1.024-1.384 1.619-1.997 1.956.263.79.57 2.009.57 3.421 0 2.721-.93 3.997-1.322 5.537l13.627-10.234M7.684 49.403c.063.018.124.035.187.05 1.648.42 3.665.635 4.274.983.137.1.305.28.305.28s.168-.18.306-.28c.609-.348 2.625-.563 4.274-.982 2.285-.581 4.743-2.61 4.743-5.696 0-1.539-.675-2.551-1.116-4.097L7.684 49.403" fill="#1A1919"/>
        <path d="M22.727 51.967a.656.656 0 1 1 0-1.313.656.656 0 0 1 0 1.313Zm0-1.492a.835.835 0 1 0 0 1.67.835.835 0 0 0 0-1.67Z" fill="#FFFFFE"/>
        <path d="M22.97 51.24h-.324v-.22h.325c.084 0 .152.05.152.11s-.068.11-.152.11Zm.414-.11c0-.164-.185-.297-.413-.297h-.587v1h.262v-.406h.186l.264.406h.288l-.275-.423c.16-.041.275-.15.275-.28Z" fill="#FFFFFE"/>
    </g>
</svg>
