<?xml version="1.0" encoding="UTF-8"?>
<svg viewBox="0 0 97 96" version="1.1" xmlns="http://www.w3.org/2000/svg" xmlns:xlink="http://www.w3.org/1999/xlink">
    <title>pac</title>
    <g id="Page-1" stroke="none" stroke-width="1" fill="none" fill-rule="evenodd">
        <g id="pac" transform="translate(-0.000000, 0.000000)">
            <rect id="Rectangle" x="0.11" y="0" width="96" height="96"></rect>
            <g id="Group-4" transform="translate(0.000000, 23.879000)">
                <path d="M89.5093193,25.7397488 L88.6473591,29.8551356 C88.2506165,31.7497276 86.5569765,33.1250789 84.6210931,33.1250789 L84.4690027,33.1250789 C85.4992258,34.5148821 86.1093078,36.2350175 86.1093078,38.0976085 C86.1093078,42.7143431 82.3669209,46.4563858 77.7501864,46.4563858 L37.2745312,46.4563858 C33.0531628,46.4563858 29.5647187,43.3268337 28.9983369,39.2616849 L24.0894649,41.4621781 C23.5568045,41.7013248 22.9907668,41.8224465 22.4071801,41.8224465 C21.4719275,41.8224465 20.5556002,41.4993405 19.8271492,40.9130011 C18.6162757,39.9378333 18.0619373,38.3873373 18.3805701,36.8657453 L19.0274703,33.775076 L9.60096347,33.775076 C7.81682629,33.775076 6.48035786,32.1392441 6.8364971,30.3905488 L12.2350175,3.86970236 C12.5340368,2.40006882 13.826461,1.34438263 15.3263749,1.34438263 L40.4302346,1.34438263 C40.4364283,1.34438263 40.442622,1.34541492 40.4491598,1.34541492 L40.5530768,1.34541492 C43.7875781,1.34541492 46.3252853,2.17915926 48.1145839,3.82703447 C48.7563228,2.35086311 50.2342146,1.34541492 51.8896599,1.34541492 L61.9086999,1.34541492 C65.6373229,1.34541492 68.436543,2.46407065 70.2292826,4.67110168 C70.2354763,4.67867179 70.2413259,4.6862419 70.2475196,4.69381201 C72.5247462,2.49985663 75.7169238,1.34541492 79.5336354,1.34541492 L89.5526753,1.34541492 C90.7972702,1.34541492 91.9610025,1.8994093 92.7458852,2.86528646 C93.5304238,3.83081952 93.8342605,5.08367265 93.5792854,6.30177209 L92.6516029,10.7320067 C92.1664277,13.0481161 90.1035729,14.7293686 87.7461719,14.7293686 L80.4148649,14.7293686 L79.3650284,19.7411252 L84.6585995,19.7411252 C86.1729655,19.7411252 87.5799736,20.4031657 88.5183231,21.5579515 C89.4614899,22.718931 89.8224465,24.2429317 89.5093193,25.7397488 Z M84.6585995,18.3957103 L81.0211619,18.3957103 L81.5073694,16.0747835 L87.7461719,16.0747835 C90.7367093,16.0747835 93.3532144,13.9437977 93.9681138,11.0079716 L94.8957963,6.5773929 C95.2340426,4.96048632 94.8311063,3.29850318 93.7898721,2.0170901 C92.748638,0.735332913 91.2039915,0 89.5530194,0 L79.5336354,0 C75.9168435,0 72.771463,0.975511843 70.3490279,2.83431783 C68.3209268,0.954521993 65.486953,0 61.9086999,0 L51.8896599,0 C50.2885818,0 48.8000229,0.700923324 47.7797786,1.86878477 C45.8769284,0.6276309 43.4538051,0 40.5530768,0 L15.3263749,0.00137638355 C13.1974537,0.00137638355 11.3438091,1.51574239 10.9191948,3.60199576 L5.52067443,30.1228422 C5.27017262,31.352985 5.58226759,32.6158169 6.3764409,33.5882319 C7.17061421,34.5603028 8.34604576,35.1177381 9.60096347,35.1177381 L17.372025,35.1177381 L17.0637151,36.5897804 C16.6408212,38.6092791 17.3764983,40.6669725 18.983426,41.9607731 C19.9503355,42.739118 21.1663704,43.1675173 22.4071801,43.1675173 C23.18174,43.1675173 23.9329013,43.0068246 24.6400184,42.6895682 L28.0685898,41.1524918 C29.3517233,45.0091185 32.9926019,47.7993921 37.2745312,47.7993921 L77.7501864,47.7993921 C83.0998452,47.7993921 87.4519699,43.4472673 87.4519699,38.0979526 C87.4519699,36.6716752 87.1402191,35.3176579 86.5851924,34.0968056 C88.2674772,33.441303 89.5781384,31.9727017 89.964214,30.1307564 L90.8261742,26.0153696 C91.2225727,24.1200895 90.7618283,22.1862706 89.56231,20.7097551 C88.3676091,19.2390893 86.580031,18.3957103 84.6585995,18.3957103 L84.6585995,18.3957103 Z" id="Fill-582" fill="#DD4A8D"></path>
                <path d="M22.406836,37.7087802 L29.1597178,5.45873717 L40.5530768,5.45873717 C45.5479727,5.45873717 47.4663073,7.93588347 46.4374606,12.8492287 L44.515685,22.0266101 C43.5463669,26.6560762 40.6163904,29.0117566 35.6624419,29.0117566 L30.2381144,29.0117566 L29.0396284,34.7351035 L22.406836,37.7087802 Z M55.604175,14.677066 L61.4001262,14.677066 L61.9527442,12.0371624 C62.117222,11.2522796 61.6141538,10.6160463 60.8292711,10.6160463 L51.8390778,10.6160463 C51.2706314,10.6160463 50.906578,10.1553019 51.0256351,9.58719963 L51.890004,5.45873717 L61.9086999,5.45873717 C66.8629925,5.45873717 68.7806389,7.93588347 67.7517922,12.8495727 L64.3676091,29.0117566 L52.6026266,29.0117566 C47.6889373,29.0117566 45.7052245,26.6564203 46.6745426,22.0269542 L46.8531284,21.1742846 C47.7543155,16.869645 50.6904857,14.677066 55.604175,14.677066 Z M72.7256982,38.3866491 C72.7256982,40.5547973 71.1869014,42.0688192 68.9839995,42.0688192 C66.7697425,42.0688192 65.2230315,40.5585823 65.2230315,38.3959397 C65.2230315,36.2680507 66.800367,34.7234043 68.9740208,34.7234043 C71.1476745,34.7234043 72.7256982,36.2639215 72.7256982,38.3866491 Z M52.1528933,34.8514079 L49.0567185,41.8424041 L47.3895739,41.8424041 L44.2135688,34.8514079 L45.8951655,34.8514079 L48.2074898,40.069278 L50.4716408,34.8514079 L52.1528933,34.8514079 Z M34.5761312,34.8524402 L34.6229283,34.8514079 C35.0860813,34.8417732 36.0433561,34.8317945 36.4855193,34.8317945 C39.3012559,34.8434937 40.916442,36.0994437 40.916442,38.2775707 C40.916442,40.5283019 39.2455124,41.8719963 36.4459483,41.8719963 C36.1280037,41.8719963 35.2829042,41.8719963 34.621896,41.84206 L34.5761312,41.8399954 L34.5761312,34.8524402 Z M42.1414234,41.8424041 L43.6754029,41.8424041 L43.6754029,34.8514079 L42.1414234,34.8514079 L42.1414234,41.8424041 Z M52.6920915,41.8424041 L54.2264151,41.8424041 L54.2264151,34.8514079 L52.6920915,34.8514079 L52.6920915,41.8424041 Z M56.1426851,39.9299191 C56.8893732,40.3504043 57.5820382,40.5547973 58.259563,40.5547973 L58.295349,40.5544532 C59.0881459,40.5451626 59.6270001,40.2396054 59.6366347,39.7940013 C59.6503986,39.3470207 59.1631588,39.2193611 58.3669209,39.0480014 C58.1797328,39.0077422 57.9863509,38.9664507 57.7912485,38.9155245 C56.8322533,38.6667431 55.7280495,38.2118484 55.7067156,36.8901761 C55.6991455,36.3396226 55.8773872,35.8757814 56.2369674,35.5117279 C56.7245512,35.016918 57.5434995,34.7330389 58.4832253,34.7330389 C59.2216551,34.7330389 59.9645581,34.9037105 60.6902564,35.2398922 L60.728451,35.2581293 L60.2742444,36.6321041 L60.2246946,36.6073292 C59.6466135,36.3182887 59.0279291,36.1589723 58.4832253,36.1589723 C58.0186959,36.1589723 57.6432873,36.2725239 57.4536904,36.4707232 C57.3590641,36.5694787 57.3139875,36.6864713 57.319493,36.8179159 C57.3346333,37.2046797 57.8445834,37.3282101 58.5520445,37.4995699 C58.7061995,37.5370763 58.8682686,37.5763033 59.0372197,37.6210357 C60.3884843,37.9744222 61.2297987,38.4461777 61.2494122,39.7052245 C61.2707461,41.3620462 59.7993921,41.9717841 58.4133739,41.9900212 L58.3338877,41.9907094 C56.9905374,41.9907094 55.9489591,41.46906 55.5632276,41.2443654 L55.5260653,41.2233756 L56.0962322,39.9041119 L56.1426851,39.9299191 Z M62.4647588,41.8424041 L63.9980501,41.8424041 L63.9980501,34.8514079 L62.4647588,34.8514079 L62.4647588,41.8424041 Z M75.523886,37.3842978 L75.523886,41.8424041 L73.9506796,41.8424041 L73.9506796,34.8514079 L75.470207,34.8514079 L78.8657453,39.2792338 L78.8657453,34.8514079 L80.4485863,34.8514079 L80.4485863,41.8424041 L78.9789528,41.8424041 L75.592017,37.4716981 L75.523886,37.3842978 Z M68.7589608,21.6212651 L70.6807364,12.4435396 C71.6497104,7.81407352 74.580031,5.45873717 79.5336354,5.45873717 L89.5530194,5.45873717 L88.6253369,9.88931582 C88.5413775,10.2905316 88.1477318,10.6160463 87.746516,10.6160463 L78.4538625,10.6160463 C77.5199862,10.6160463 77.0052188,10.9408729 76.8606985,11.6314733 L74.5989562,22.4329873 C74.4348225,23.21787 74.9378907,23.8544474 75.7227734,23.8544474 L84.6589436,23.8544474 C85.234616,23.8544474 85.6034868,24.3210415 85.4830533,24.8967139 L84.6214372,29.0117566 L74.6430005,29.0117566 C69.6481046,29.0117566 67.7301141,26.5342662 68.7589608,21.6212651 Z M84.6585995,19.7411252 L79.3650284,19.7411252 L80.4148649,14.7293686 L87.7461719,14.7293686 C90.1035729,14.7293686 92.1664277,13.0481161 92.6516029,10.7320067 L93.5792854,6.30177209 C93.8342605,5.08367265 93.5304238,3.83081952 92.7458852,2.86528646 C91.9610025,1.8994093 90.7972702,1.34541492 89.5526753,1.34541492 L79.5336354,1.34541492 C75.7169238,1.34541492 72.5247462,2.49985663 70.2475196,4.69381201 C70.2413259,4.6862419 70.2354763,4.67867179 70.2292826,4.67110168 C68.436543,2.46407065 65.6373229,1.34541492 61.9086999,1.34541492 L51.8896599,1.34541492 C50.2342146,1.34541492 48.7563228,2.35086311 48.1145839,3.82703447 C46.3252853,2.17915926 43.7875781,1.34541492 40.5530768,1.34541492 L40.4491598,1.34541492 C40.442622,1.34541492 40.4364283,1.34438263 40.4302346,1.34438263 L15.3263749,1.34438263 C13.826461,1.34438263 12.5340368,2.40006882 12.2350175,3.86970236 L6.8364971,30.3905488 C6.48035786,32.1392441 7.81682629,33.775076 9.60096347,33.775076 L19.0274703,33.775076 L18.3805701,36.8657453 C18.0619373,38.3873373 18.6162757,39.9378333 19.8271492,40.9130011 C20.5556002,41.4993405 21.4719275,41.8224465 22.4071801,41.8224465 C22.9907668,41.8224465 23.5568045,41.7013248 24.0894649,41.4621781 L28.9983369,39.2616849 C29.5647187,43.3268337 33.0531628,46.4563858 37.2745312,46.4563858 L77.7501864,46.4563858 C82.3669209,46.4563858 86.1093078,42.7143431 86.1093078,38.0976085 C86.1093078,36.2350175 85.4992258,34.5148821 84.4690027,33.1250789 L84.6210931,33.1250789 C86.5569765,33.1250789 88.2506165,31.7497276 88.6473591,29.8551356 L89.5093193,25.7397488 C89.8224465,24.2429317 89.4614899,22.718931 88.5183231,21.5579515 C87.5799736,20.4031657 86.1729655,19.7411252 84.6585995,19.7411252 L84.6585995,19.7411252 Z" id="Fill-583" fill="#1A1919"></path>
                <path d="M53.6827436,23.8541033 L59.4783506,23.8541033 L60.5071973,18.9407582 L54.7115903,18.9407582 C53.9263635,18.9407582 53.156621,19.5773356 52.9921431,20.3622183 L52.4735906,22.8390205 C52.3290704,23.5292768 52.7481792,23.8541033 53.6827436,23.8541033" id="Fill-584" fill="#1A1919"></path>
                <path d="M38.3353788,22.8386764 L40.5971211,12.0375065 C40.7615989,11.2522796 40.2585307,10.6160463 39.4733039,10.6160463 L34.0899237,10.6160463 L31.3178873,23.8541033 L36.7425589,23.8541033 C37.6764352,23.8541033 38.1908585,23.5292768 38.3353788,22.8386764" id="Fill-585" fill="#1A1919"></path>
                <path d="M52.4735906,22.8390205 L52.9921431,20.3622183 C53.156621,19.5773356 53.9263635,18.9407582 54.7115903,18.9407582 L60.5071973,18.9407582 L59.4783506,23.8541033 L53.6827436,23.8541033 C52.7481792,23.8541033 52.3290704,23.5292768 52.4735906,22.8390205 Z M52.6026266,29.0117566 L64.3676091,29.0117566 L67.7517922,12.8495727 C68.7806389,7.93588347 66.8629925,5.45873717 61.9086999,5.45873717 L51.890004,5.45873717 L51.0256351,9.58719963 C50.906578,10.1553019 51.2706314,10.6160463 51.8390778,10.6160463 L60.8292711,10.6160463 C61.6141538,10.6160463 62.117222,11.2522796 61.9527442,12.0371624 L61.4001262,14.677066 L55.604175,14.677066 C50.6904857,14.677066 47.7543155,16.869645 46.8531284,21.1742846 L46.6745426,22.0269542 C45.7052245,26.6564203 47.6889373,29.0117566 52.6026266,29.0117566 L52.6026266,29.0117566 Z" id="Fill-586" fill="#99D2CB"></path>
                <path d="M74.6430005,29.0117566 L84.6214372,29.0117566 L85.4830533,24.8967139 C85.6034868,24.3210415 85.234616,23.8544474 84.6589436,23.8544474 L75.7227734,23.8544474 C74.9378907,23.8544474 74.4348225,23.21787 74.5989562,22.4329873 L76.8606985,11.6314733 C77.0052188,10.9408729 77.5199862,10.6160463 78.4538625,10.6160463 L87.746516,10.6160463 C88.1477318,10.6160463 88.5413775,10.2905316 88.6253369,9.88931582 L89.5530194,5.45873717 L79.5336354,5.45873717 C74.580031,5.45873717 71.6497104,7.81407352 70.6807364,12.4435396 L68.7589608,21.6212651 C67.7301141,26.5342662 69.6481046,29.0117566 74.6430005,29.0117566" id="Fill-587" fill="#99D2CB"></path>
                <path d="M34.0899237,10.6160463 L39.4733039,10.6160463 C40.2585307,10.6160463 40.7615989,11.2522796 40.5971211,12.0375065 L38.3353788,22.8386764 C38.1908585,23.5292768 37.6764352,23.8541033 36.7425589,23.8541033 L31.3178873,23.8541033 L34.0899237,10.6160463 Z M29.0396284,34.7351035 L30.2381144,29.0117566 L35.6624419,29.0117566 C40.6163904,29.0117566 43.5463669,26.6560762 44.515685,22.0266101 L46.4374606,12.8492287 C47.4663073,7.93588347 45.5479727,5.45873717 40.5530768,5.45873717 L29.1597178,5.45873717 L22.406836,37.7087802 L29.0396284,34.7351035 L29.0396284,34.7351035 Z" id="Fill-588" fill="#99D2CB"></path>
                <path d="M39.3432356,38.3174858 C39.3432356,40.1783564 37.3808568,40.4099329 36.7793772,40.4364283 C36.6572231,40.4412456 36.5398864,40.4436543 36.4259907,40.4436543 C36.3379022,40.4436543 36.2518782,40.4422779 36.1665424,40.4395251 L36.1300682,40.4381488 L36.1300682,36.2652979 L36.1665424,36.2639215 C36.3850433,36.2556632 36.6080174,36.2570396 36.8127545,36.2677066 C37.9792395,36.2677066 39.3432356,36.8044962 39.3432356,38.3174858 Z M36.4459483,41.8719963 C39.2455124,41.8719963 40.916442,40.5283019 40.916442,38.2775707 C40.916442,36.0994437 39.3012559,34.8434937 36.4855193,34.8317945 C36.0433561,34.8317945 35.0860813,34.8417732 34.6229283,34.8514079 L34.5761312,34.8524402 L34.5761312,41.8399954 L34.621896,41.84206 C35.2829042,41.8719963 36.1280037,41.8719963 36.4459483,41.8719963 L36.4459483,41.8719963 Z" id="Fill-589" fill="#DD4A8D"></path>
                <path d="M36.1665424,36.2639215 L36.1300682,36.2652979 L36.1300682,40.4381488 L36.1665424,40.4395251 C36.2518782,40.4422779 36.3379022,40.4436543 36.4259907,40.4436543 C36.5398864,40.4436543 36.6572231,40.4412456 36.7793772,40.4364283 C37.3808568,40.4099329 39.3432356,40.1783564 39.3432356,38.3174858 C39.3432356,36.8044962 37.9792395,36.2677066 36.8127545,36.2677066 C36.6080174,36.2570396 36.3850433,36.2556632 36.1665424,36.2639215" id="Fill-590" fill="#1A1919"></path>
                <polygon id="Fill-591" fill="#DD4A8D" points="42.1414234 41.8424041 43.6754029 41.8424041 43.6754029 34.8514079 42.1414234 34.8514079"></polygon>
                <polyline id="Fill-592" fill="#DD4A8D" points="45.8951655 34.8514079 44.2135688 34.8514079 47.3895739 41.8424041 49.0567185 41.8424041 52.1528933 34.8514079 50.4716408 34.8514079 48.2074898 40.069278 45.8951655 34.8514079"></polyline>
                <polygon id="Fill-593" fill="#DD4A8D" points="52.6920915 41.8424041 54.2264151 41.8424041 54.2264151 34.8514079 52.6920915 34.8514079"></polygon>
                <path d="M55.5632276,41.2443654 C55.9489591,41.46906 56.9905374,41.9907094 58.3338877,41.9907094 L58.4133739,41.9900212 C59.7993921,41.9717841 61.2707461,41.3620462 61.2494122,39.7052245 C61.2297987,38.4461777 60.3884843,37.9744222 59.0372197,37.6210357 C58.8682686,37.5763033 58.7061995,37.5370763 58.5520445,37.4995699 C57.8445834,37.3282101 57.3346333,37.2046797 57.319493,36.8179159 C57.3139875,36.6864713 57.3590641,36.5694787 57.4536904,36.4707232 C57.6432873,36.2725239 58.0186959,36.1589723 58.4832253,36.1589723 C59.0279291,36.1589723 59.6466135,36.3182887 60.2246946,36.6073292 L60.2742444,36.6321041 L60.728451,35.2581293 L60.6902564,35.2398922 C59.9645581,34.9037105 59.2216551,34.7330389 58.4832253,34.7330389 C57.5434995,34.7330389 56.7245512,35.016918 56.2369674,35.5117279 C55.8773872,35.8757814 55.6991455,36.3396226 55.7067156,36.8901761 C55.7280495,38.2118484 56.8322533,38.6667431 57.7912485,38.9155245 C57.9863509,38.9664507 58.1797328,39.0077422 58.3669209,39.0480014 C59.1631588,39.2193611 59.6503986,39.3470207 59.6366347,39.7940013 C59.6270001,40.2396054 59.0881459,40.5451626 58.295349,40.5544532 L58.259563,40.5547973 C57.5820382,40.5547973 56.8893732,40.3504043 56.1426851,39.9299191 L56.0962322,39.9041119 L55.5260653,41.2233756 L55.5632276,41.2443654" id="Fill-594" fill="#DD4A8D"></path>
                <polygon id="Fill-595" fill="#DD4A8D" points="62.4647588 41.8424041 63.9980501 41.8424041 63.9980501 34.8514079 62.4647588 34.8514079"></polygon>
                <path d="M68.9839995,40.6432299 C67.6812525,40.6432299 66.8058726,39.7399782 66.8058726,38.3959397 C66.8058726,37.0519011 67.6771234,36.1493376 68.9740208,36.1493376 C70.2709182,36.1493376 71.142169,37.0484602 71.142169,38.3866491 C71.142169,39.7361932 70.2750473,40.6432299 68.9839995,40.6432299 Z M68.9740208,34.7234043 C66.800367,34.7234043 65.2230315,36.2680507 65.2230315,38.3959397 C65.2230315,40.5585823 66.7697425,42.0688192 68.9839995,42.0688192 C71.1869014,42.0688192 72.7256982,40.5547973 72.7256982,38.3866491 C72.7256982,36.2639215 71.1476745,34.7234043 68.9740208,34.7234043 L68.9740208,34.7234043 Z" id="Fill-596" fill="#DD4A8D"></path>
                <path d="M68.9740208,36.1493376 C67.6771234,36.1493376 66.8058726,37.0519011 66.8058726,38.3959397 C66.8058726,39.7399782 67.6812525,40.6432299 68.9839995,40.6432299 C70.2750473,40.6432299 71.142169,39.7361932 71.142169,38.3866491 C71.142169,37.0484602 70.2709182,36.1493376 68.9740208,36.1493376" id="Fill-597" fill="#1A1919"></path>
                <polyline id="Fill-598" fill="#DD4A8D" points="78.9789528 41.8424041 80.4485863 41.8424041 80.4485863 34.8514079 78.8657453 34.8514079 78.8657453 39.2792338 75.470207 34.8514079 73.9506796 34.8514079 73.9506796 41.8424041 75.523886 41.8424041 75.523886 37.3842978 75.592017 37.4716981 78.9789528 41.8424041"></polyline>
                <polyline id="Fill-599" fill="#1A1919" points="91.8508918 27.5066812 92.5143087 27.5066812 92.5143087 29.0117566 92.92103 29.0117566 92.92103 27.5066812 93.5242301 27.5066812 93.5896083 27.1787578 91.91627 27.1787578 91.8508918 27.5066812"></polyline>
                <polyline id="Fill-600" fill="#1A1919" points="94.9732179 28.0930206 94.4660205 27.1797901 93.9460916 27.1797901 93.9460916 29.0107243 94.3218444 29.0107243 94.3218444 27.6298675 94.8245684 28.5255491 95.1215232 28.5255491 95.6242473 27.6298675 95.6242473 29.0107243 96 29.0107243 96 27.1797901 95.4800711 27.1797901 94.9732179 28.0930206"></polyline>
                <path d="M17.6724207,27.6264266 C15.7809256,28.1043758 14.4754258,28.2261857 13.514366,28.5730344 C13.3911797,28.6883065 12.5911567,29.5554281 12.5911567,29.5554281 C12.5911567,29.5554281 11.7914779,28.6883065 11.6682916,28.5730344 C10.7072317,28.2261857 9.40173195,28.1043758 7.51058095,27.6264266 C3.52939152,26.6192579 1.34919998,23.2773986 1.34919998,20.0948558 C1.34919998,17.2051385 2.85909273,16.3122097 2.85909273,13.1540976 C2.85909273,10.6934679 1.68469347,8.61512875 1.68469347,8.61512875 C1.68469347,8.61512875 4.57165797,8.36359466 5.35413202,4.8538166 C5.35413202,4.8538166 7.08562253,6.63657739 8.84016746,6.63657739 C11.102942,6.63657739 12.5911567,4.71411367 12.5911567,4.71411367 C12.5911567,4.71411367 14.0797155,6.63657739 16.3424901,6.63657739 C18.097035,6.63657739 19.8285255,4.8538166 19.8285255,4.8538166 C20.6109996,8.36359466 23.4986523,8.61512875 23.4986523,8.61512875 C23.4986523,8.61512875 22.3239089,10.6934679 22.3239089,13.1540976 C22.3239089,16.3122097 23.8334576,17.2051385 23.8334576,20.0948558 C23.8334576,23.2773986 21.6525779,26.6192579 17.6724207,27.6264266 Z M23.1707289,13.1613236 C23.1707289,11.8978035 23.4745656,10.7788037 23.8754373,9.86970236 L24.6706429,8.06388714 L22.7994494,7.51195733 C21.9853186,7.27143431 21.3920973,6.65584676 21.0369903,5.68343178 L20.2111602,3.42513047 L18.3729999,4.94741068 C17.7680794,5.4480702 17.0761025,5.77564948 16.3424901,5.77564948 C15.3583759,5.77564948 14.3842404,5.28496874 13.7755348,4.68245684 L12.5911567,3.51115444 L11.4074669,4.68245684 C10.7984172,5.28496874 9.8246258,5.77564948 8.84016746,5.77564948 C8.10586683,5.77564948 7.4142341,5.4480702 6.80965762,4.94741068 L4.9708092,3.42513047 L4.14635545,5.68343178 C3.79021621,6.65584676 3.19768309,7.27143431 2.38251993,7.51195733 L0.512014681,8.06388714 L1.30790847,9.86970236 C1.70774789,10.7788037 2.01192866,11.8978035 2.01192866,13.1613236 C2.01192866,16.2447669 0.498939038,16.8576017 0.498939038,20.0948558 C0.498939038,24.4294317 3.72587028,27.5424672 7.29861788,28.4612032 C9.06451798,28.9078397 9.88690715,28.9518839 11.2037621,29.3204106 C11.3744337,29.5000287 12.5911567,30.8141309 12.5911567,30.8141309 C12.5911567,30.8141309 13.8075357,29.5000287 13.9788955,29.3204106 C15.2954063,28.9518839 16.1181396,28.9078397 17.8847279,28.4612032 C21.4564432,27.5424672 24.6833744,24.4294317 24.6833744,20.0948558 C24.6833744,16.8576017 23.1707289,16.2447669 23.1707289,13.1613236 L23.1707289,13.1613236 Z" id="Fill-601" fill="#E1E2E0"></path>
                <path d="M17.2226874,25.855365 C15.5551987,26.2796353 13.5157424,26.497448 12.8998107,26.849458 C12.7611401,26.9506222 12.5911567,27.1316167 12.5911567,27.1316167 C12.5911567,27.1316167 12.4211734,26.9506222 12.2825027,26.849458 C11.6665711,26.497448 9.62677066,26.2796353 7.95962608,25.855365 C7.89665653,25.8395366 7.83403108,25.8219877 7.77106154,25.8044388 L20.8904055,15.9515972 C21.3370419,17.5151689 22.0200723,18.5391983 22.0200723,20.0948558 C22.0200723,23.2168378 19.5332913,25.2683374 17.2226874,25.855365 Z M6.55055342,25.3185754 C4.7867179,24.412571 3.24310374,22.672134 3.16637036,20.2830762 L19.3426622,8.13477089 C19.9073235,8.91793313 20.5545679,9.40242014 21.0858519,9.69352526 C20.8195217,10.4918277 20.5098354,11.7254115 20.5098354,13.1540976 C20.5098354,13.7483512 20.5531915,14.2727533 20.6257957,14.748638 L6.55055342,25.3185754 Z M4.67316626,13.1540976 C4.67316626,11.7254115 4.36313586,10.4918277 4.09714974,9.69352526 C4.71721053,9.35287033 5.49589952,8.75139072 6.11664851,7.715318 C6.78385043,8.08797385 7.72873774,8.46441475 8.84016746,8.46441475 C10.5238286,8.46441475 11.8389631,7.72942593 12.5911567,7.17715203 C13.3433503,7.72942593 14.6588289,8.46441475 16.3424901,8.46441475 C16.6108849,8.46441475 16.869645,8.44204852 17.1177381,8.40316568 L3.33635373,18.75357 C3.73344039,17.1958479 4.67316626,15.9058324 4.67316626,13.1540976 Z M21.4739921,13.1540976 C21.4739921,10.9016459 22.3256294,9.16602627 22.3256294,9.16602627 C22.3256294,9.16602627 20.361186,8.7696278 19.4458909,6.28319092 C19.4458909,6.28319092 18.1417675,7.49922578 16.3424901,7.49922578 C14.0883179,7.49922578 12.5911567,5.9163847 12.5911567,5.9163847 C12.5911567,5.9163847 11.0943396,7.49922578 8.84016746,7.49922578 C7.04089006,7.49922578 5.73676665,6.28319092 5.73676665,6.28319092 C4.82181568,8.7696278 2.85702816,9.16602627 2.85702816,9.16602627 C2.85702816,9.16602627 3.70832139,10.9016459 3.70832139,13.1540976 C3.70832139,16.496301 2.19774044,17.4632104 2.19774044,20.0948558 C2.19774044,23.7735849 5.06474738,26.1155015 7.72219992,26.7909617 C9.82772266,27.3253427 11.2037621,27.3855594 12.1280037,27.8318518 C12.1280037,27.8318518 12.4638413,28.1391294 12.5911567,28.2808969 C12.7191604,28.1391294 13.054998,27.8318518 13.054998,27.8318518 C13.9785514,27.3855594 15.355279,27.3253427 17.4601136,26.7909617 C20.1179102,26.1155015 22.9849171,23.7735849 22.9849171,20.0948558 C22.9849171,17.4632104 21.4739921,16.496301 21.4739921,13.1540976 L21.4739921,13.1540976 Z" id="Fill-602" fill="#E1E2E0"></path>
                <path d="M9.17359638,20.293055 L7.66267133,17.9786661 L5.98417159,19.2394334 C5.98417159,19.2394334 6.57223146,19.2556059 6.57223146,19.8718816 L6.57223146,24.229512 L7.75660951,23.3407123 L7.75660951,20.2586454 L9.10615358,22.3266617 L10.3583185,21.3865917 L10.3583185,15.9543499 L9.17359638,16.8434937 L9.17359638,20.293055" id="Fill-603" fill="#E1E2E0"></path>
                <path d="M13.9751104,15.2458565 L12.6396743,16.2482078 L12.6396743,14.2404083 L10.8352354,15.5954579 C10.8352354,15.5954579 11.4232953,15.6119745 11.4232953,16.2285944 L11.4232953,20.5865688 L12.6396743,19.6729942 L12.6396743,17.6858405 L13.9751104,16.6838332 L13.9751104,18.6699547 L15.1333372,17.8000803 L15.1333372,12.3674944 L13.9751104,13.238057 L13.9751104,15.2458565" id="Fill-604" fill="#E1E2E0"></path>
                <path d="M17.3610139,14.7410678 L17.3610139,10.6955325 L15.5569192,12.050238 C15.5569192,12.050238 16.1449791,12.0664105 16.1449791,12.6823421 L16.1449791,17.0410048 L19.5030108,14.5184378 C19.4307507,13.6489075 19.5030108,13.1327637 19.5030108,13.1327637 L17.3610139,14.7410678" id="Fill-605" fill="#E1E2E0"></path>
                <path d="M21.4739921,13.1540976 C21.4739921,16.496301 22.9849171,17.4632104 22.9849171,20.0948558 C22.9849171,23.7735849 20.1179102,26.1155015 17.4601136,26.7909617 C15.355279,27.3253427 13.9785514,27.3855594 13.054998,27.8318518 C13.054998,27.8318518 12.7191604,28.1391294 12.5911567,28.2808969 C12.4638413,28.1391294 12.1280037,27.8318518 12.1280037,27.8318518 C11.2037621,27.3855594 9.82772266,27.3253427 7.72219992,26.7909617 C5.06474738,26.1155015 2.19774044,23.7735849 2.19774044,20.0948558 C2.19774044,17.4632104 3.70832139,16.496301 3.70832139,13.1540976 C3.70832139,10.9016459 2.85702816,9.16602627 2.85702816,9.16602627 C2.85702816,9.16602627 4.82181568,8.7696278 5.73676665,6.28319092 C5.73676665,6.28319092 7.04089006,7.49922578 8.84016746,7.49922578 C11.0943396,7.49922578 12.5911567,5.9163847 12.5911567,5.9163847 C12.5911567,5.9163847 14.0883179,7.49922578 16.3424901,7.49922578 C18.1417675,7.49922578 19.4458909,6.28319092 19.4458909,6.28319092 C20.361186,8.7696278 22.3256294,9.16602627 22.3256294,9.16602627 C22.3256294,9.16602627 21.4739921,10.9016459 21.4739921,13.1540976 Z M19.8285255,4.8538166 C19.8285255,4.8538166 18.097035,6.63657739 16.3424901,6.63657739 C14.0797155,6.63657739 12.5911567,4.71411367 12.5911567,4.71411367 C12.5911567,4.71411367 11.102942,6.63657739 8.84016746,6.63657739 C7.08562253,6.63657739 5.35413202,4.8538166 5.35413202,4.8538166 C4.57165797,8.36359466 1.68469347,8.61512875 1.68469347,8.61512875 C1.68469347,8.61512875 2.85909273,10.6934679 2.85909273,13.1540976 C2.85909273,16.3122097 1.34919998,17.2051385 1.34919998,20.0948558 C1.34919998,23.2773986 3.52939152,26.6192579 7.51058095,27.6264266 C9.40173195,28.1043758 10.7072317,28.2261857 11.6682916,28.5730344 C11.7914779,28.6883065 12.5911567,29.5554281 12.5911567,29.5554281 C12.5911567,29.5554281 13.3911797,28.6883065 13.514366,28.5730344 C14.4754258,28.2261857 15.7809256,28.1043758 17.6724207,27.6264266 C21.6525779,26.6192579 23.8334576,23.2773986 23.8334576,20.0948558 C23.8334576,17.2051385 22.3239089,16.3122097 22.3239089,13.1540976 C22.3239089,10.6934679 23.4986523,8.61512875 23.4986523,8.61512875 C23.4986523,8.61512875 20.6109996,8.36359466 19.8285255,4.8538166 L19.8285255,4.8538166 Z" id="Fill-606" fill="#1A1919"></path>
                <path d="M23.8754373,9.86970236 C23.4745656,10.7788037 23.1707289,11.8978035 23.1707289,13.1613236 C23.1707289,16.2447669 24.6833744,16.8576017 24.6833744,20.0948558 C24.6833744,24.4294317 21.4564432,27.5424672 17.8847279,28.4612032 C16.1181396,28.9078397 15.2954063,28.9518839 13.9788955,29.3204106 C13.8075357,29.5000287 12.5911567,30.8141309 12.5911567,30.8141309 C12.5911567,30.8141309 11.3744337,29.5000287 11.2037621,29.3204106 C9.88690715,28.9518839 9.06451798,28.9078397 7.29861788,28.4612032 C3.72587028,27.5424672 0.498939038,24.4294317 0.498939038,20.0948558 C0.498939038,16.8576017 2.01192866,16.2447669 2.01192866,13.1613236 C2.01192866,11.8978035 1.70774789,10.7788037 1.30790847,9.86970236 L0.512014681,8.06388714 L2.38251993,7.51195733 C3.19768309,7.27143431 3.79021621,6.65584676 4.14635545,5.68343178 L4.9708092,3.42513047 L6.80965762,4.94741068 C7.4142341,5.4480702 8.10586683,5.77564948 8.84016746,5.77564948 C9.8246258,5.77564948 10.7984172,5.28496874 11.4074669,4.68245684 L12.5911567,3.51115444 L13.7755348,4.68245684 C14.3842404,5.28496874 15.3583759,5.77564948 16.3424901,5.77564948 C17.0761025,5.77564948 17.7680794,5.4480702 18.3729999,4.94741068 L20.2111602,3.42513047 L21.0369903,5.68343178 C21.3920973,6.65584676 21.9853186,7.27143431 22.7994494,7.51195733 L24.6706429,8.06388714 L23.8754373,9.86970236 Z M21.3865917,5.55542811 L20.3804554,2.80162872 L18.1352297,4.65974652 C17.5402879,5.15283592 16.9367437,5.40299363 16.3424901,5.40299363 C15.5472845,5.40299363 14.6426564,5.01622986 14.0373918,4.41784711 L12.5911567,2.98675231 L11.1449217,4.41784711 C10.5400011,5.01622986 9.63537306,5.40299363 8.84016746,5.40299363 C8.24556977,5.40299363 7.64271377,5.15283592 7.04777198,4.65974652 L4.80220221,2.80162872 L3.79572174,5.55542811 C3.48293858,6.41119459 2.97230028,6.94970465 2.27757068,7.1547858 L0,7.82611688 L0.966221254,10.0204164 C1.41251362,11.0330906 1.63892871,12.0891208 1.63892871,13.1613236 C1.63892871,16.1263979 0.125939095,16.801514 0.125939095,20.0948558 C0.125939095,24.8399381 3.79572174,27.9454035 7.2046797,28.8225039 C8.92791191,29.2423009 9.44818489,29.2698285 11.0041865,29.6531513 C11.1311579,29.7894133 12.5911567,31.3615874 12.5911567,31.3615874 C12.5911567,31.3615874 14.0511556,29.7894133 14.1777829,29.6531513 C15.7337845,29.2698285 16.2544016,29.2423009 17.9772897,28.8225039 C21.3862476,27.9454035 25.0563744,24.8399381 25.0563744,20.0948558 C25.0563744,16.801514 23.5430407,16.1263979 23.5430407,13.1613236 C23.5430407,12.0891208 23.7691117,11.0330906 24.2157481,10.0204164 L25.1823135,7.82611688 L22.905431,7.1547858 C22.2096691,6.94970465 21.699719,6.41119459 21.3865917,5.55542811 L21.3865917,5.55542811 Z" id="Fill-607" fill="#1A1919"></path>
                <path d="M19.5030108,14.5184378 L16.1449791,17.0410048 L16.1449791,12.6823421 C16.1449791,12.0664105 15.5569192,12.050238 15.5569192,12.050238 L17.3610139,10.6955325 L17.3610139,14.7410678 L19.5030108,13.1327637 C19.5030108,13.1327637 19.4307507,13.6489075 19.5030108,14.5184378 Z M15.1333372,17.8000803 L13.9751104,18.6699547 L13.9751104,16.6838332 L12.6396743,17.6858405 L12.6396743,19.6729942 L11.4232953,20.5865688 L11.4232953,16.2285944 C11.4232953,15.6119745 10.8352354,15.5954579 10.8352354,15.5954579 L12.6396743,14.2404083 L12.6396743,16.2482078 L13.9751104,15.2458565 L13.9751104,13.238057 L15.1333372,12.3674944 L15.1333372,17.8000803 Z M10.3583185,21.3865917 L9.10615358,22.3266617 L7.75660951,20.2586454 L7.75660951,23.3407123 L6.57223146,24.229512 L6.57223146,19.8718816 C6.57223146,19.2556059 5.98417159,19.2394334 5.98417159,19.2394334 L7.66267133,17.9786661 L9.17359638,20.293055 L9.17359638,16.8434937 L10.3583185,15.9543499 L10.3583185,21.3865917 Z M19.3426622,8.13477089 L3.16637036,20.2830762 C3.24310374,22.672134 4.7867179,24.412571 6.55055342,25.3185754 L20.6257957,14.748638 C20.5531915,14.2727533 20.5098354,13.7483512 20.5098354,13.1540976 C20.5098354,11.7254115 20.8195217,10.4918277 21.0858519,9.69352526 C20.5545679,9.40242014 19.9073235,8.91793313 19.3426622,8.13477089 L19.3426622,8.13477089 Z" id="Fill-608" fill="#1A1919"></path>
                <path d="M16.3424901,8.46441475 C14.6588289,8.46441475 13.3433503,7.72942593 12.5911567,7.17715203 C11.8389631,7.72942593 10.5238286,8.46441475 8.84016746,8.46441475 C7.72873774,8.46441475 6.78385043,8.08797385 6.11664851,7.715318 C5.49589952,8.75139072 4.71721053,9.35287033 4.09714974,9.69352526 C4.36313586,10.4918277 4.67316626,11.7254115 4.67316626,13.1540976 C4.67316626,15.9058324 3.73344039,17.1958479 3.33635373,18.75357 L17.1177381,8.40316568 C16.869645,8.44204852 16.6108849,8.46441475 16.3424901,8.46441475" id="Fill-609" fill="#1A1919"></path>
                <path d="M7.77106154,25.8044388 C7.83403108,25.8219877 7.89665653,25.8395366 7.95962608,25.855365 C9.62677066,26.2796353 11.6665711,26.497448 12.2825027,26.849458 C12.4211734,26.9506222 12.5911567,27.1316167 12.5911567,27.1316167 C12.5911567,27.1316167 12.7611401,26.9506222 12.8998107,26.849458 C13.5157424,26.497448 15.5551987,26.2796353 17.2226874,25.855365 C19.5332913,25.2683374 22.0200723,23.2168378 22.0200723,20.0948558 C22.0200723,18.5391983 21.3370419,17.5151689 20.8904055,15.9515972 L7.77106154,25.8044388" id="Fill-610" fill="#1A1919"></path>
                <path d="M21.3914091,28.7134255 C21.3914091,28.3466193 21.6883638,28.0493204 22.05517,28.0493204 C22.4219763,28.0493204 22.7192751,28.3466193 22.7192751,28.7134255 C22.7192751,29.0802317 22.4219763,29.3771864 22.05517,29.3771864 C21.6883638,29.3771864 21.3914091,29.0802317 21.3914091,28.7134255 Z M22.9006136,28.7134255 C22.9006136,28.2464874 22.5221082,27.868326 22.05517,27.868326 C21.5882319,27.868326 21.2104146,28.2464874 21.2104146,28.7134255 C21.2104146,29.1803636 21.5882319,29.5581809 22.05517,29.5581809 C22.5221082,29.5581809 22.9006136,29.1803636 22.9006136,28.7134255 L22.9006136,28.7134255 Z" id="Fill-611" fill="#FFFFFE"></path>
                <path d="M22.2949015,28.6367071 L21.9699882,28.6367071 L21.9699882,28.4185253 L22.2949015,28.4185253 C22.3791016,28.4185253 22.4474523,28.4670102 22.4474523,28.5279727 C22.4474523,28.5878658 22.3791016,28.6367071 22.2949015,28.6367071 Z M22.7079773,29.231003 L22.4330887,28.8071171 C22.5940595,28.7664754 22.7079773,28.657028 22.7079773,28.5279727 C22.7079773,28.3632669 22.5232324,28.231003 22.2949015,28.231003 L21.7079773,28.231003 L21.7079773,29.231003 L21.9699882,29.231003 L21.9699882,28.8242294 L22.156219,28.8242294 L22.4202111,29.231003 L22.7079773,29.231003 L22.7079773,29.231003 Z" id="Fill-612" fill="#FFFFFE"></path>
            </g>
        </g>
    </g>
</svg>